<svg width="31" height="32" viewBox="0 0 31 32" fill="none" xmlns="http://www.w3.org/2000/svg">
<g id="credit-card-check">
<path id="Icon" d="M20.6667 24.0001L23.25 26.6667L28.4167 21.3334M28.4167 13.3334H2.58337M28.4167 16.0001V10.9334C28.4167 9.43994 28.4167 8.69321 28.1351 8.12278C27.8875 7.62101 27.4923 7.21306 27.0062 6.9574C26.4536 6.66675 25.7302 6.66675 24.2834 6.66675H6.71671C5.26991 6.66675 4.5465 6.66675 3.9939 6.9574C3.50781 7.21306 3.11261 7.62101 2.86494 8.12277C2.58337 8.6932 2.58337 9.43994 2.58337 10.9334V21.0667C2.58337 22.5602 2.58337 23.307 2.86494 23.8774C3.11261 24.3792 3.50781 24.7871 3.9939 25.0428C4.5465 25.3334 5.26991 25.3334 6.71671 25.3334H15.5" stroke="#00539B" stroke-width="2" stroke-linecap="round" stroke-linejoin="round"/>
</g>
</svg>
