<svg width="35" height="34" viewBox="0 0 35 34" fill="none" xmlns="http://www.w3.org/2000/svg">
<g id="Group 6885">
<g id="Group 6827">
<g id="Group 238">
<path id="Ellipse 8" d="M32.5 17.5408C32.5 26.0015 25.6354 32.861 17.1666 32.861C8.69785 32.861 1.83326 26.0015 1.83326 17.5408C1.83326 9.08015 8.69785 2.2207 17.1666 2.2207C25.6354 2.2207 32.5 9.08015 32.5 17.5408Z" stroke="#FFA500"/>
<path id="Ellipse 9" d="M34.5 17.0414C34.5 25.7639 27.202 32.8611 18.1666 32.8611C9.13124 32.8611 1.83326 25.7639 1.83326 17.0414C1.83326 8.3189 9.13124 1.22168 18.1666 1.22168C27.202 1.22168 34.5 8.3189 34.5 17.0414Z" stroke="#FFA500"/>
<path id="Ellipse 10" d="M32.5001 17.0414C32.5001 25.7732 25.3418 32.8611 16.5 32.8611C7.65827 32.8611 0.5 25.7732 0.5 17.0414C0.5 8.30957 7.65827 1.22168 16.5 1.22168C25.3418 1.22168 32.5001 8.30957 32.5001 17.0414Z" stroke="#FFA500"/>
</g>
</g>
<path id="Vector" d="M17.5712 20.5229C17.1121 20.5388 16.6729 20.4637 16.2536 20.2978C15.8343 20.1318 15.466 19.8902 15.1487 19.5729C14.8321 19.2563 14.5905 18.9 14.4239 18.5042C14.2573 18.1083 14.1744 17.6888 14.175 17.2454C14.175 17.0871 14.1829 16.9326 14.1987 16.7818C14.2146 16.6311 14.2462 16.4848 14.2937 16.3429C14.3571 16.1529 14.353 15.9629 14.2814 15.7729C14.2098 15.5829 14.0873 15.4483 13.9137 15.3692C13.7238 15.29 13.5375 15.29 13.3551 15.3692C13.1727 15.4483 13.0502 15.5829 12.9875 15.7729C12.9083 16.0104 12.8488 16.2479 12.8089 16.4854C12.769 16.7229 12.7494 16.9683 12.75 17.2217C12.75 17.855 12.8729 18.4608 13.1186 19.039C13.3643 19.6173 13.7085 20.1277 14.1512 20.5704C14.5787 21.0138 15.0816 21.3542 15.6598 21.5917C16.2381 21.8292 16.8356 21.9558 17.4525 21.9717L17.0487 22.3754C16.9062 22.5179 16.835 22.6842 16.835 22.8742C16.835 23.0642 16.9062 23.2304 17.0487 23.3729C17.1912 23.5154 17.3575 23.5867 17.5475 23.5867C17.7375 23.5867 17.9037 23.5154 18.0462 23.3729L19.5662 21.8529C19.7562 21.6629 19.8512 21.4413 19.8512 21.1879C19.8512 20.9346 19.7562 20.7129 19.5662 20.5229L18.0462 19.0029C17.9037 18.8604 17.7375 18.7892 17.5475 18.7892C17.3575 18.7892 17.1912 18.8604 17.0487 19.0029C16.9062 19.1454 16.835 19.3117 16.835 19.5017C16.835 19.6917 16.9062 19.8579 17.0487 20.0004L17.5712 20.5229ZM17.405 13.8967C17.8642 13.8967 18.3075 13.98 18.735 14.1465C19.1625 14.3131 19.5346 14.5544 19.8512 14.8704C20.1679 15.1871 20.4095 15.5433 20.5761 15.9392C20.7427 16.335 20.8256 16.7546 20.825 17.1979C20.825 17.3563 20.8171 17.5105 20.8012 17.6606C20.7854 17.8107 20.7537 17.9573 20.7062 18.1004C20.6429 18.2904 20.647 18.4842 20.7186 18.6818C20.7902 18.8794 20.9127 19.0181 21.0862 19.0979C21.2762 19.1771 21.4625 19.1771 21.6448 19.0979C21.8272 19.0188 21.9498 18.8842 22.0125 18.6942C22.0917 18.4567 22.1512 18.2151 22.1911 17.9693C22.231 17.7236 22.2506 17.4744 22.25 17.2217C22.25 16.5883 22.135 15.9826 21.9051 15.4043C21.6752 14.8261 21.331 14.3077 20.8725 13.8492C20.4292 13.4058 19.9184 13.0695 19.3401 12.8403C18.7619 12.611 18.1644 12.4961 17.5475 12.4954L17.975 12.0679C18.1017 11.9254 18.165 11.7592 18.165 11.5692C18.165 11.3792 18.0938 11.2129 17.9513 11.0704C17.8087 10.9279 17.6425 10.8567 17.4525 10.8567C17.2625 10.8567 17.0962 10.9279 16.9537 11.0704L15.4337 12.5904C15.2437 12.7804 15.1487 13.0021 15.1487 13.2554C15.1487 13.5088 15.2437 13.7304 15.4337 13.9204L16.9537 15.4404C17.0962 15.5829 17.2625 15.6542 17.4525 15.6542C17.6425 15.6542 17.8087 15.5829 17.9513 15.4404C18.0938 15.2979 18.165 15.1317 18.165 14.9417C18.165 14.7517 18.0938 14.5854 17.9513 14.4429L17.405 13.8967ZM17.5 26.7217C16.1858 26.7217 14.9508 26.4721 13.795 25.9731C12.6392 25.474 11.6337 24.7973 10.7787 23.9429C9.92375 23.0879 9.24703 22.0825 8.7486 20.9267C8.25017 19.7708 8.00063 18.5358 8 17.2217C8 15.9075 8.24953 14.6725 8.7486 13.5167C9.24767 12.3608 9.92438 11.3554 10.7787 10.5004C11.6337 9.64543 12.6392 8.96871 13.795 8.47028C14.9508 7.97185 16.1858 7.72231 17.5 7.72168C18.8142 7.72168 20.0492 7.97121 21.205 8.47028C22.3608 8.96935 23.3663 9.64606 24.2212 10.5004C25.0763 11.3554 25.7533 12.3608 26.2523 13.5167C26.7514 14.6725 27.0006 15.9075 27 17.2217C27 18.5358 26.7505 19.7708 26.2514 20.9267C25.7523 22.0825 25.0756 23.0879 24.2212 23.9429C23.3663 24.7979 22.3608 25.475 21.205 25.974C20.0492 26.4731 18.8142 26.7223 17.5 26.7217Z" fill="#6A6A6A"/>
</g>
</svg>
