<svg width="57" height="55" viewBox="0 0 57 55" fill="none" xmlns="http://www.w3.org/2000/svg">
<g id="Group 6828">
<g id="Group 6827">
<g id="Group 238">
<path id="Ellipse 8" d="M52.6836 28.2492C52.6836 41.9096 41.6001 52.985 27.9263 52.985C14.2524 52.985 3.16895 41.9096 3.16895 28.2492C3.16895 14.5888 14.2524 3.51343 27.9263 3.51343C41.6001 3.51343 52.6836 14.5888 52.6836 28.2492Z" stroke="#FFA500" stroke-width="2"/>
<path id="Ellipse 9" d="M55.9371 27.4367C55.9371 41.5177 44.154 52.9851 29.553 52.9851C14.9521 52.9851 3.16895 41.5177 3.16895 27.4367C3.16895 13.3556 14.9521 1.88818 29.553 1.88818C44.154 1.88818 55.9371 13.3556 55.9371 27.4367Z" stroke="#FFA500" stroke-width="2"/>
<path id="Ellipse 10" d="M52.6836 27.4367C52.6836 41.5364 41.1243 52.9851 26.8418 52.9851C12.5594 52.9851 1 41.5364 1 27.4367C1 13.337 12.5594 1.88818 26.8418 1.88818C41.1243 1.88818 52.6836 13.337 52.6836 27.4367Z" stroke="#FFA500" stroke-width="2"/>
</g>
</g>
<g id="Vector">
<path d="M17.1613 17.348H20.3674V22.1572H36.398V17.348H39.6041V25.3633H42.8102V17.348C42.8102 15.5846 41.3674 14.1419 39.6041 14.1419H32.9033C32.23 12.2824 30.4667 10.9358 28.3827 10.9358C26.2987 10.9358 24.5354 12.2824 23.8621 14.1419H17.1613C15.3979 14.1419 13.9552 15.5846 13.9552 17.348V39.7908C13.9552 41.5541 15.3979 42.9969 17.1613 42.9969H26.7796V39.7908H17.1613V17.348ZM28.3827 14.1419C29.2644 14.1419 29.9857 14.8633 29.9857 15.745C29.9857 16.6266 29.2644 17.348 28.3827 17.348C27.501 17.348 26.7796 16.6266 26.7796 15.745C26.7796 14.8633 27.501 14.1419 28.3827 14.1419Z" fill="#00539B"/>
<path d="M42.8102 27.7679L34.0094 36.5847L29.1842 31.7755L26.7796 34.1801L34.0094 41.3938L45.2148 30.1724L42.8102 27.7679Z" fill="#00539B"/>
</g>
</g>
</svg>
