<svg width="57" height="55" viewBox="0 0 57 55" fill="none" xmlns="http://www.w3.org/2000/svg">
<path d="M52.6835 28.2492C52.6835 41.9096 41.6001 52.985 27.9262 52.985C14.2523 52.985 3.16888 41.9096 3.16888 28.2492C3.16888 14.5888 14.2523 3.51343 27.9262 3.51343C41.6001 3.51343 52.6835 14.5888 52.6835 28.2492Z" stroke="#FFA500" stroke-width="2"/>
<path d="M55.9371 27.4367C55.9371 41.5177 44.1539 52.9851 29.553 52.9851C14.952 52.9851 3.16888 41.5177 3.16888 27.4367C3.16888 13.3556 14.952 1.88818 29.553 1.88818C44.1539 1.88818 55.9371 13.3556 55.9371 27.4367Z" stroke="#FFA500" stroke-width="2"/>
<path d="M52.6836 27.4367C52.6836 41.5364 41.1243 52.9851 26.8418 52.9851C12.5594 52.9851 1 41.5364 1 27.4367C1 13.337 12.5594 1.88818 26.8418 1.88818C41.1243 1.88818 52.6836 13.337 52.6836 27.4367Z" stroke="#FFA500" stroke-width="2"/>
<path d="M17.1612 17.348H20.3674V22.1572H36.3979V17.348H39.604V25.3633H42.8101V17.348C42.8101 15.5846 41.3674 14.1419 39.604 14.1419H32.9032C32.23 12.2824 30.4666 10.9358 28.3826 10.9358C26.2987 10.9358 24.5353 12.2824 23.862 14.1419H17.1612C15.3979 14.1419 13.9551 15.5846 13.9551 17.348V39.7908C13.9551 41.5541 15.3979 42.9969 17.1612 42.9969H26.7796V39.7908H17.1612V17.348ZM28.3826 14.1419C29.2643 14.1419 29.9857 14.8633 29.9857 15.745C29.9857 16.6266 29.2643 17.348 28.3826 17.348C27.501 17.348 26.7796 16.6266 26.7796 15.745C26.7796 14.8633 27.501 14.1419 28.3826 14.1419Z" fill="#00539B"/>
<path d="M42.8101 27.7679L34.0094 36.5847L29.1842 31.7755L26.7796 34.1801L34.0094 41.3938L45.2147 30.1724L42.8101 27.7679Z" fill="#00539B"/>
</svg>
