<svg width="31" height="32" viewBox="0 0 31 32" fill="none" xmlns="http://www.w3.org/2000/svg">
<g id="certificate-01">
<path id="Icon" d="M8.39583 26.6667H6.45833C5.0316 26.6667 3.875 25.4728 3.875 24.0001V5.33341C3.875 3.86066 5.0316 2.66675 6.45833 2.66675H24.5417C25.9684 2.66675 27.125 3.86066 27.125 5.33341V24.0001C27.125 25.4728 25.9684 26.6667 24.5417 26.6667H22.6042M15.5 25.3334C17.6401 25.3334 19.375 23.5426 19.375 21.3334C19.375 19.1243 17.6401 17.3334 15.5 17.3334C13.3599 17.3334 11.625 19.1243 11.625 21.3334C11.625 23.5426 13.3599 25.3334 15.5 25.3334ZM15.5 25.3334L15.5277 25.3331L11.4037 29.5902L7.75032 25.8189L11.6504 21.7931M15.5 25.3334L19.624 29.5902L23.2774 25.8189L19.3774 21.7931M11.625 8.00008H19.375M9.04167 12.6667H21.9583" stroke="white" stroke-width="2" stroke-linecap="round" stroke-linejoin="round"/>
</g>
</svg>
