<svg width="92" height="22" viewBox="0 0 92 22" fill="none" xmlns="http://www.w3.org/2000/svg">
<g id="Group 236">
<path id="Vector" d="M55.4264 17.6315C55.4264 17.4873 55.3782 17.369 55.278 17.2803C55.1779 17.1879 55.0554 17.1435 54.9033 17.1435C54.2875 17.1435 53.5419 17.6389 52.6664 18.6297L52.9001 18.2785C53.2229 17.7979 53.3861 17.4689 53.3861 17.2951C53.3861 17.1842 53.3416 17.1287 53.2525 17.1287C52.8556 17.1287 52.5737 17.2322 52.4067 17.4467C52.3177 17.5576 52.2027 17.735 52.0617 17.979L51.4496 19.0105L50.6966 20.2859L50.6224 20.4153H50.6187C50.4428 20.5319 50.2565 20.6321 50.0622 20.7148C49.8804 20.7924 49.6542 20.8626 49.3759 20.9255C49.0977 20.992 48.8195 21.0216 48.545 21.0216C48.2704 21.0216 48.0701 20.9551 47.9551 20.8257C47.8364 20.6963 47.7808 20.5373 47.7808 20.3562C47.7808 20.1085 47.8364 19.8682 47.9477 19.6316C48.3483 19.7314 48.7156 19.7831 49.0532 19.7831C49.4316 19.7831 49.7729 19.7203 50.0808 19.5946C50.4851 19.4282 50.8301 19.1214 51.0267 18.7554C51.2159 18.4042 51.3346 17.8422 51.0453 17.4245C50.8338 17.1213 50.2922 16.7184 49.0198 17.3986C48.66 17.5908 48.3261 17.8496 48.0033 18.1861V18.1787C47.6806 18.4892 47.4172 18.8478 47.2132 19.2545C47.0879 19.5033 46.998 19.7684 46.9461 20.0419L46.7977 20.1639C46.7421 20.212 46.6196 20.2933 46.4267 20.4153C46.2375 20.5373 46.0521 20.6371 45.8703 20.7111C45.6885 20.7887 45.4622 20.8589 45.184 20.9218C44.9058 20.9883 44.6275 21.0179 44.353 21.0179C44.0785 21.0179 43.8782 20.9514 43.7632 20.822C43.6445 20.6926 43.5888 20.5336 43.5888 20.3525C43.5888 19.9014 43.7743 19.4652 44.1453 19.0474C44.3118 18.8598 44.4929 18.6855 44.6869 18.5262C44.8892 18.3639 45.1023 18.2157 45.325 18.0825C45.5587 17.9421 45.7775 17.8718 45.9816 17.8718C46.0224 17.8718 46.0446 17.8977 46.0446 17.9531C46.0446 18.0086 45.989 18.1084 45.8777 18.26C45.7664 18.4116 45.7108 18.5188 45.7108 18.5779C45.7108 18.8034 45.8295 18.918 46.0669 18.918C46.2709 18.918 46.4712 18.7776 46.6716 18.5003C46.8682 18.2193 46.9683 17.9827 46.9683 17.7831C46.971 17.6904 46.9504 17.5985 46.9083 17.5159C46.8661 17.4332 46.8039 17.3624 46.7272 17.3099C46.5677 17.1953 46.3896 17.1361 46.1856 17.1361C45.7701 17.1361 45.3509 17.2322 44.9243 17.4245C44.5108 17.6094 44.1319 17.8632 43.804 18.175C43.482 18.4861 43.216 18.85 43.0175 19.2508C42.8135 19.6611 42.7096 20.0678 42.7096 20.4782C42.7096 20.8885 42.8654 21.2175 43.1771 21.4726C43.47 21.7207 43.8425 21.8558 44.2269 21.8534C44.6164 21.8534 45.0838 21.7499 45.6366 21.5466C45.9148 21.4467 46.1782 21.3284 46.423 21.1954C46.6145 21.0908 46.7895 20.9588 46.9424 20.8035C47.0054 21.066 47.1464 21.2878 47.3727 21.4726C47.6656 21.7207 48.0381 21.8558 48.4225 21.8534C48.812 21.8534 49.2795 21.7499 49.8322 21.5466L50.1401 21.4246C50.1475 21.4467 50.1587 21.4652 50.1735 21.4763C50.2032 21.4985 50.2811 21.5355 50.4146 21.5835C50.5445 21.6316 50.652 21.6575 50.7337 21.6575C50.8153 21.6575 50.9117 21.5798 51.0267 21.4172L52.1322 20.0604L53.3675 18.7997C53.8535 18.3302 54.154 18.0899 54.2764 18.0788L54.2875 18.0899C54.013 18.4116 53.8758 18.6999 53.8758 18.955C53.8741 19.0627 53.908 19.1679 53.9722 19.2545C54.0353 19.3395 54.128 19.3839 54.243 19.3839C54.358 19.3839 54.4656 19.3247 54.5583 19.2064C54.7327 18.9735 54.9219 18.6888 55.1296 18.3487C55.3374 18.0086 55.4375 17.7683 55.4375 17.6241L55.4264 17.6315ZM49.3982 18.1269C49.9583 17.8275 50.2922 17.809 50.3516 17.894C50.4035 17.9679 50.3887 18.175 50.2848 18.3672C50.1772 18.5668 49.9806 18.7406 49.7543 18.833C49.4056 18.9772 48.979 18.9994 48.4559 18.9033C48.7564 18.5594 49.0754 18.3007 49.3982 18.1269ZM64.107 20.0715C64.0922 19.9643 64.0477 19.9125 63.9772 19.9125C63.9327 19.9125 63.8993 19.9236 63.877 19.9384C63.8548 19.9569 63.788 20.0308 63.673 20.1565L63.3243 20.5262C63.2056 20.6482 63.0683 20.7591 62.9162 20.8663C62.7641 20.9698 62.6306 21.0253 62.5193 21.0253C62.408 21.0253 62.3524 20.9255 62.3524 20.7185C62.3512 20.6661 62.3574 20.6138 62.3709 20.5632C62.4266 20.2637 62.549 19.9014 62.7419 19.48L63.2649 18.4374C63.4208 18.1639 63.5246 18.0049 63.5729 17.9568C63.6211 17.9088 63.6433 17.8348 63.6433 17.7276C63.6433 17.5354 63.5024 17.4393 63.2204 17.4393C63.098 17.4393 63.0053 17.4578 62.9459 17.491C62.8829 17.5243 62.8087 17.6093 62.7196 17.7424C62.6862 17.6426 62.6046 17.5576 62.4785 17.491C62.3524 17.4245 62.1892 17.3912 61.9888 17.3912C61.4695 17.3912 60.9019 17.6315 60.2861 18.1121C59.9937 18.3407 59.723 18.5957 59.4774 18.8737C59.2325 19.1547 59.0359 19.4615 58.8838 19.8016C58.8208 19.9384 58.7762 20.0789 58.7391 20.2157L58.4312 20.419C58.2383 20.541 58.0529 20.6408 57.8748 20.7148C57.693 20.7924 57.4667 20.8626 57.1885 20.9255C56.9103 20.992 56.632 21.0216 56.3575 21.0216C56.083 21.0216 55.8827 20.9551 55.7677 20.8257C55.649 20.6963 55.5933 20.5373 55.5933 20.3562C55.5933 19.9051 55.7788 19.4689 56.1498 19.0511C56.3163 18.8635 56.4974 18.6892 56.6914 18.5299C56.8937 18.3676 57.1069 18.2194 57.3295 18.0862C57.5632 17.9458 57.782 17.8755 57.9861 17.8755C58.0269 17.8755 58.0491 17.9014 58.0491 17.9568C58.0491 18.0123 57.9935 18.1121 57.8822 18.2637C57.7709 18.4153 57.7153 18.5225 57.7153 18.5816C57.7153 18.8071 57.834 18.9217 58.0714 18.9217C58.2754 18.9217 58.4758 18.7813 58.6761 18.504C58.8764 18.223 58.9729 17.9864 58.9729 17.7868C58.9756 17.6941 58.9549 17.6022 58.9128 17.5196C58.8707 17.4369 58.8084 17.3661 58.7317 17.3136C58.5722 17.199 58.3904 17.1398 58.1901 17.1398C57.7746 17.1398 57.3554 17.2359 56.9288 17.4282C56.5153 17.6131 56.1364 17.8669 55.8085 18.1787C55.4865 18.4898 55.2205 18.8537 55.0221 19.2545C54.818 19.6648 54.7141 20.0715 54.7141 20.4818C54.7141 20.8922 54.87 21.2212 55.1816 21.4763C55.4745 21.7243 55.847 21.8595 56.2314 21.8571C56.6209 21.8571 57.0883 21.7536 57.6411 21.5503C57.9193 21.4504 58.1827 21.3321 58.4275 21.1991C58.5166 21.151 58.5982 21.0955 58.6724 21.0401C58.7095 21.2656 58.8059 21.4504 58.9617 21.5946C59.1212 21.7462 59.329 21.8238 59.5812 21.8238C59.8335 21.8238 60.16 21.6834 60.5569 21.4061C60.9575 21.1288 61.31 20.7887 61.6179 20.3894C61.5437 20.5558 61.5066 20.748 61.5066 20.9698C61.5058 21.1889 61.5804 21.4016 61.718 21.5724C61.859 21.7536 62.0779 21.846 62.3783 21.846C62.6788 21.846 63.009 21.6981 63.3762 21.4024C63.7435 21.1066 63.9772 20.8515 64.0848 20.6408C64.107 20.5965 64.1182 20.5151 64.1182 20.4005C64.1184 20.2892 64.111 20.1781 64.0959 20.0678L64.107 20.0715ZM61.4732 19.4097C61.3174 19.602 61.002 19.9014 60.5272 20.3118C60.0524 20.7221 59.763 20.9255 59.6591 20.9255C59.585 20.9255 59.5479 20.8626 59.5479 20.7295C59.5479 20.5965 59.648 20.3599 59.8521 20.0086C60.0561 19.6574 60.275 19.3543 60.5161 19.1029C61.195 18.4005 61.8516 18.0493 62.4859 18.0493L61.4732 19.4097ZM35.9543 16.6999C36.0619 16.6999 36.3475 16.5705 36.8038 16.3154C37.2601 16.0603 37.5383 15.8829 37.6385 15.7867C37.9501 15.5834 38.1059 15.3283 38.1059 15.0252C38.1059 14.9106 38.0725 14.7886 38.0021 14.6629C37.9316 14.5335 37.8611 14.4706 37.7869 14.4706C37.7127 14.4706 37.6608 14.5039 37.6348 14.5705C37.6108 14.6386 37.57 14.6997 37.5161 14.7479C37.4604 14.7997 37.3603 14.8773 37.2156 14.9771L36.7074 15.3616C36.5145 15.5169 36.3364 15.6832 36.1769 15.857C36.019 16.0265 35.8956 16.2249 35.8133 16.4411C35.7965 16.4744 35.7876 16.5111 35.7874 16.5483C35.7874 16.6444 35.843 16.6925 35.9506 16.6925L35.9543 16.6999ZM40.9512 16.918C40.5321 16.918 40.0127 17.0474 39.3969 17.3025C39.0853 17.4319 38.7922 17.5835 38.5214 17.7535C38.2506 17.9236 38.0243 18.1269 37.8462 18.3672C37.6645 18.6075 37.5754 18.8478 37.5754 19.0881C37.5754 19.3284 37.6608 19.5133 37.8388 19.6353C37.9138 19.6897 37.9947 19.7356 38.08 19.772C38.1579 19.8053 38.2654 19.8423 38.399 19.8793L39.0408 20.0419L39.6714 20.2157C39.7938 20.2637 39.8569 20.3155 39.8569 20.3783C39.8569 20.5114 39.6862 20.6445 39.3412 20.7776C38.9962 20.9107 38.603 20.9772 38.1579 20.9772C38.0985 20.9772 38.0317 20.944 37.9612 20.8774C37.8908 20.8109 37.8537 20.7332 37.8537 20.6371V20.5484C37.8574 20.4966 37.8203 20.4634 37.7535 20.4449V20.4079C37.7537 20.2966 37.7463 20.1855 37.7312 20.0752C37.7164 19.968 37.6719 19.9162 37.6014 19.9162C37.5569 19.9162 37.5235 19.9273 37.5012 19.9421C37.479 19.9606 37.4122 20.0345 37.2972 20.1602L36.9485 20.5299C36.8298 20.6519 36.6925 20.7628 36.5404 20.87C36.3883 20.9735 36.2548 21.029 36.1435 21.029C36.0322 21.029 35.9766 20.9292 35.9766 20.7221C35.9766 20.6556 35.9803 20.6038 35.9914 20.5669C36.0471 20.2674 36.1695 19.9051 36.3624 19.4837L36.8854 18.4411L37.1933 17.9605C37.2416 17.9125 37.2638 17.8385 37.2638 17.7313C37.2638 17.5391 37.1229 17.443 36.8409 17.443C36.7185 17.443 36.6258 17.4615 36.5664 17.4947C36.5033 17.528 36.4291 17.613 36.3401 17.7461C36.3067 17.6463 36.2251 17.5613 36.099 17.4947C35.9729 17.4282 35.8096 17.3949 35.6093 17.3949C35.09 17.3949 34.5224 17.6352 33.9066 18.1158C33.6142 18.3444 33.3434 18.5994 33.0979 18.8774C32.853 19.1583 32.6564 19.4652 32.5043 19.8053C32.4291 19.9726 32.3719 20.1473 32.3337 20.3266L32.1482 20.5003C32.013 20.6215 31.8692 20.7327 31.7179 20.8331C31.5546 20.9403 31.4322 20.9994 31.3432 21.0068C31.2541 21.0142 31.1762 21.0031 31.1132 20.9698C31.0501 20.9403 31.0167 20.8368 31.0167 20.6667C31.0167 20.5447 31.1651 20.2489 31.4656 19.7757L32.3633 18.3672C32.6638 17.8977 32.8159 17.6019 32.8159 17.4799C32.8159 17.3579 32.7677 17.2507 32.6712 17.162C32.5748 17.0733 32.4561 17.0289 32.3151 17.0289C31.9033 17.0289 31.4953 17.1546 31.0946 17.406C30.9039 17.5316 30.7229 17.6713 30.553 17.8238L30.0708 18.2859L29.5996 18.7961L29.1656 19.2582C29.173 19.2471 29.2212 19.1916 29.3066 19.0844L29.4809 18.8737L29.633 18.6704C29.7072 18.5742 29.7591 18.4929 29.7925 18.4301L29.9075 18.2082C29.9492 18.1288 29.9803 18.0443 30.0003 17.9568C30.0188 17.8755 30.0262 17.7794 30.0262 17.6574C30.0262 17.5354 29.978 17.4245 29.8779 17.3173C29.7777 17.2138 29.6367 17.1583 29.455 17.1583C29.2732 17.1583 28.9727 17.2877 28.5646 17.5428C28.1529 17.8016 27.6966 18.1898 27.1883 18.7147L27.4666 18.3709L27.8895 17.8385C28.0082 17.6833 28.0824 17.5724 28.1121 17.5021C28.1417 17.4319 28.1566 17.3801 28.1566 17.3395C28.1566 17.1953 28.1083 17.1213 28.0156 17.1213C27.8598 17.1213 27.7003 17.1472 27.5333 17.2027C27.3664 17.2581 27.2477 17.3358 27.1735 17.4393C26.4983 18.3894 25.7972 19.6574 25.0738 21.2434C25.0441 21.3395 25.0293 21.4061 25.0293 21.4467C25.0293 21.4874 25.0404 21.5133 25.0627 21.5281C25.085 21.5429 25.1183 21.5687 25.1592 21.5983C25.2037 21.6316 25.2408 21.6538 25.2779 21.6649H25.378L25.6525 21.676C25.6859 21.676 25.749 21.6205 25.8492 21.5096C25.9456 21.3987 26.0124 21.3174 26.0458 21.2656C26.5614 20.382 27.2885 19.4911 28.2271 18.5964C28.5683 18.2711 28.7946 18.1084 28.9022 18.1084C29.0098 18.1084 29.0654 18.1528 29.0654 18.2452C29.0654 18.3376 28.7687 18.8811 28.1788 19.8829L27.2922 21.4394C27.2922 21.5133 27.359 21.5724 27.4888 21.6205C27.6187 21.6649 27.7448 21.6907 27.8635 21.6907C27.9822 21.6907 28.0712 21.6538 28.1269 21.5798L29.0506 20.3968C29.544 19.809 30.1301 19.199 30.809 18.5668C31.2059 18.1971 31.4619 18.0123 31.5769 18.0123C31.6066 18.0123 31.6214 18.0197 31.6214 18.0382C31.6214 18.0567 31.5398 18.175 31.3803 18.3968L30.8498 19.1362C30.6471 19.4262 30.4696 19.7329 30.3193 20.053C30.1561 20.3894 30.0782 20.6778 30.0782 20.9144C30.0782 21.151 30.1524 21.3543 30.2971 21.5281C30.4417 21.7018 30.7088 21.8053 31.0909 21.8423C31.1095 21.8423 31.1392 21.8497 31.18 21.8497C31.5175 21.8497 31.87 21.6981 32.2372 21.3987L32.3671 21.2878C32.419 21.4024 32.4895 21.5059 32.5822 21.5909C32.7417 21.7425 32.9495 21.8201 33.2017 21.8201C33.454 21.8201 33.7804 21.6797 34.1774 21.4024C34.578 21.1251 34.9304 20.785 35.2383 20.3857C35.1641 20.5521 35.1271 20.7443 35.1271 20.9661C35.1263 21.1852 35.2009 21.3979 35.3385 21.5687C35.4795 21.7499 35.6983 21.8423 35.9988 21.8423C36.2993 21.8423 36.6295 21.6944 36.9967 21.3987C37.045 21.3617 37.0895 21.3247 37.1303 21.2878C37.16 21.4246 37.2379 21.5466 37.3714 21.6501C37.5421 21.7869 37.8462 21.8534 38.2914 21.8534C38.7366 21.8534 39.2559 21.7055 39.8532 21.4135C40.1314 21.2804 40.3651 21.1066 40.5543 20.8959C40.7435 20.6852 40.84 20.4597 40.84 20.2231C40.84 20.1085 40.7917 19.9791 40.699 19.8386C40.6062 19.6981 40.4393 19.5724 40.1982 19.4615C39.9571 19.3506 39.4525 19.2175 38.6846 19.0659C38.514 19.0327 38.4287 18.9883 38.4287 18.9365C38.4287 18.8848 38.4917 18.7997 38.6179 18.6851C38.744 18.5705 38.9035 18.4522 39.0927 18.3228C39.3082 18.1846 39.5384 18.0706 39.779 17.9827C40.0461 17.8829 40.3021 17.8238 40.5469 17.8127C40.5321 17.8644 40.5061 17.9125 40.469 17.9605C40.4319 18.0086 40.4133 18.053 40.4133 18.0973C40.4133 18.1417 40.4282 18.1676 40.4542 18.1824C40.4818 18.1931 40.5062 18.2109 40.5246 18.2341C40.5432 18.26 40.5654 18.2785 40.5951 18.2933C40.6248 18.3081 40.6916 18.3154 40.7954 18.3154C40.8993 18.3154 41.044 18.2711 41.2258 18.1824C41.4075 18.0936 41.5374 17.9938 41.6227 17.8829C41.708 17.772 41.7488 17.6167 41.7488 17.4208V17.3801C41.7488 17.3025 41.734 17.2322 41.7043 17.1694C41.6079 16.9919 41.3519 16.9032 40.9401 16.9032L40.9512 16.918ZM35.1011 19.4134C34.9453 19.6057 34.63 19.9051 34.1551 20.3155C33.6803 20.7258 33.3909 20.9292 33.2871 20.9292C33.2129 20.9292 33.1758 20.8663 33.1758 20.7332C33.1758 20.6002 33.2759 20.3635 33.48 20.0123C33.684 19.6611 33.9029 19.358 34.144 19.1066C34.8229 18.4042 35.4795 18.053 36.1138 18.053L35.1011 19.4134Z" fill="#FFA500"/>
<path id="Vector_2" d="M6.87774 13.8154V5.21637V5.03522H6.69597L5.80194 5.03891H5.62387V5.21637V14.9356V15.113H5.80194L9.90113 15.1167H10.0792V14.9393V13.9929V13.8154H9.90113H6.87774ZM18.0661 7.41974H16.8456V8.25524C16.6045 7.99276 16.3263 7.78204 16.011 7.61567C15.5435 7.37537 15.0242 7.25337 14.4752 7.25337H14.4715C13.3956 7.25337 12.4831 7.64525 11.7708 8.41791C11.0585 9.18687 10.695 10.1555 10.695 11.2978C10.695 12.4402 11.0511 13.3755 11.7485 14.1445C12.4534 14.9134 13.3437 15.3053 14.3973 15.3053C14.9685 15.3053 15.5102 15.1796 15.9998 14.9282C16.33 14.7581 16.6156 14.5437 16.8531 14.2923V15.113H18.0698V7.41974H18.0661ZM14.4418 8.48445C15.0761 8.48445 15.6215 8.75063 16.1111 9.29408C16.6082 9.84492 16.8494 10.4734 16.8494 11.2128C16.8494 12.0039 16.6045 12.6842 16.1148 13.2424C15.6252 13.8006 15.0724 14.0742 14.4195 14.0742C13.7666 14.0742 13.1731 13.8154 12.6871 13.2868C12.2048 12.7618 11.9563 12.1074 11.9526 11.3348C11.9526 10.5141 12.1937 9.84492 12.6871 9.29778C13.1731 8.75063 13.7481 8.48445 14.4381 8.48445H14.4418ZM26.8506 5.15352L26.8061 5.03522H25.4781L25.4335 5.15722L21.9056 14.8727L21.8166 15.1093H23.1447L23.1855 14.9947L24.2316 12.0631H28.0303L29.0802 14.9947L29.121 15.113H30.4565L30.3711 14.8727L26.8469 5.15352H26.8506ZM27.5963 10.8357H24.6731L26.1198 6.66926L27.5926 10.8357H27.5963ZM34.3479 7.48258V7.30143L34.1624 7.30883C33.7952 7.31992 33.465 7.40865 33.1831 7.57501C33.031 7.66373 32.8863 7.78573 32.7453 7.92991V7.41604H31.5545V15.113H32.8121V10.5067C32.8121 9.8745 32.9197 9.41978 33.1311 9.1536C33.3352 8.89481 33.695 8.73954 34.1921 8.68778L34.3553 8.673V8.51033L34.3479 7.48258ZM42.3979 7.41604H41.1848V8.25155C40.9443 7.99294 40.6607 7.7778 40.3465 7.61567C39.879 7.37537 39.3597 7.25337 38.8069 7.25337C37.7311 7.25337 36.8186 7.64525 36.1026 8.41791C35.3903 9.18687 35.0268 10.1592 35.0305 11.2978C35.0305 12.418 35.3829 13.3755 36.084 14.1408C36.7852 14.9134 37.6792 15.3016 38.7365 15.3016C39.2909 15.3059 39.8382 15.1765 40.3316 14.9245C40.6618 14.7544 40.9474 14.54 41.1885 14.2849V15.1093H42.4053V7.41604H42.3979ZM38.7513 14.1629V14.0742C38.0724 14.0742 37.5085 13.8154 37.0189 13.2868C36.5292 12.7544 36.2918 12.1148 36.2918 11.3348C36.2918 10.5547 36.5366 9.83753 37.0226 9.29408C37.5048 8.75433 38.091 8.48445 38.7735 8.48445C39.4079 8.48445 39.9532 8.75063 40.4466 9.29408C40.9363 9.84123 41.1811 10.4882 41.1811 11.2128C41.1811 12.0002 40.9363 12.6842 40.4466 13.2424C39.9606 13.8006 39.4042 14.0742 38.7476 14.0742V14.1629H38.7513ZM50.1437 7.41604H48.901V11.2017L48.8379 12.5289C48.7971 12.7655 48.7266 12.9762 48.6339 13.15C48.4706 13.442 48.2481 13.6675 47.9736 13.8265C47.7065 13.9781 47.3837 14.0557 47.0202 14.0557C46.3858 14.0557 45.9295 13.8709 45.6624 13.5049C45.3842 13.1204 45.2395 12.4402 45.2395 11.4864V7.41234H44.0079V11.4198C44.0079 12.7766 44.2453 13.7711 44.7053 14.3737C45.1727 14.991 45.9481 15.3016 46.9942 15.3016C47.4876 15.3016 47.9142 15.2203 48.2629 15.0502C48.4892 14.943 48.7044 14.7914 48.901 14.6029V15.1093H50.1437V7.41604ZM55.0702 8.45857C55.5784 8.45857 55.9976 8.57318 56.3611 8.81348C56.7247 9.05008 57.0363 9.42717 57.2923 9.93365L57.3442 10.0298H58.6834L58.5981 9.78947C58.3087 8.98354 57.8561 8.34397 57.2589 7.89664C56.6616 7.44192 55.9605 7.21271 55.1777 7.21271C54.1353 7.21271 53.2376 7.61198 52.5105 8.40312C51.7871 9.18687 51.4235 10.1592 51.4235 11.283C51.4235 12.3884 51.7834 13.3422 52.4994 14.126C53.2153 14.9171 54.1094 15.3201 55.1481 15.3201C55.9642 15.3201 56.6802 15.0872 57.2811 14.6287C57.8784 14.174 58.3198 13.5234 58.5981 12.6953L58.6723 12.4587H57.3331L57.2885 12.5696C57.0845 13.0502 56.7915 13.4162 56.4168 13.6675C56.0421 13.93 55.6006 14.0594 55.111 14.0594C54.4247 14.0594 53.8682 13.8006 53.4008 13.2683C52.9371 12.7396 52.6997 12.0631 52.6997 11.2645C52.6997 10.466 52.926 9.79686 53.3971 9.25341C53.8608 8.71736 54.4061 8.45488 55.0665 8.45488L55.0702 8.45857ZM67.16 7.41604H65.9432V8.25524C65.7021 7.99646 65.4202 7.78204 65.1048 7.61567C64.6411 7.37537 64.1255 7.25337 63.5727 7.25337H63.5616C62.4858 7.25337 61.5769 7.64525 60.861 8.41791C60.1487 9.18687 59.7852 10.1518 59.7852 11.2941C59.7852 12.4365 60.1376 13.3718 60.8387 14.1408C61.5398 14.9134 62.4339 15.3016 63.4911 15.3053C64.0624 15.3053 64.6003 15.1796 65.09 14.9282C65.4202 14.7581 65.7058 14.5437 65.9469 14.2886V15.113H67.1637V7.41604H67.16ZM63.5356 8.48076C64.17 8.48076 64.7153 8.75063 65.2087 9.29408C65.7021 9.84862 65.9432 10.4771 65.9432 11.2128C65.9432 11.9965 65.6984 12.6805 65.2087 13.2424C64.719 13.8006 64.1663 14.0742 63.5171 14.0742C62.8382 14.0742 62.2706 13.8154 61.7847 13.2868C61.2987 12.7581 61.0539 12.1 61.0539 11.3348C61.0539 10.5289 61.2987 9.84123 61.7884 9.29408C62.2744 8.75063 62.8494 8.48445 63.5394 8.48076H63.5356ZM74.431 8.51403C74.1905 8.11501 73.8403 7.793 73.4219 7.5861C73.0102 7.37537 72.5279 7.26816 71.9937 7.26816C71.5115 7.26816 71.0737 7.35689 70.699 7.52325C70.4471 7.63887 70.2144 7.79222 70.009 7.97797V7.41604H68.7923V15.1167H70.0127V11.3644L70.0721 10.0556C70.1129 9.81904 70.1834 9.60832 70.2836 9.42717C70.4394 9.13881 70.6545 8.91699 70.929 8.76172C71.2073 8.60645 71.5189 8.52882 71.8935 8.52882C72.5279 8.52882 72.9694 8.69887 73.2476 9.04639C73.5295 9.40129 73.6742 10.0002 73.6742 10.8246V15.113H74.9021V11.0982C74.9021 10.4032 74.8687 9.86341 74.7982 9.49741C74.724 9.12402 74.5979 8.7913 74.431 8.51403ZM83.5568 7.59719V7.41974H82.34V8.25524C82.1002 7.99642 81.8179 7.78014 81.5053 7.61567C81.0379 7.37537 80.5185 7.25337 79.9621 7.25337C78.8826 7.25337 77.9737 7.64525 77.2577 8.41791C76.5418 9.18687 76.1819 10.1555 76.1819 11.2941C76.1819 12.4328 76.5381 13.3755 77.2355 14.1408C77.9403 14.9097 78.8306 15.3016 79.8842 15.3016C80.4555 15.3016 80.9934 15.1759 81.4868 14.9245C81.8169 14.7581 82.0989 14.5437 82.34 14.2886V15.113H83.5568V7.59719ZM79.9324 8.48445C80.5594 8.48445 81.1195 8.75803 81.6018 9.29408C82.0989 9.84492 82.34 10.4734 82.3437 11.2128C82.3437 12.0002 82.0989 12.6842 81.6092 13.2424C81.1269 13.7932 80.5594 14.0742 79.9139 14.0742C79.235 14.0742 78.6674 13.8154 78.1777 13.2868C77.6955 12.7581 77.4469 12.1037 77.4506 11.3348C77.4506 10.5252 77.6955 9.84123 78.1852 9.29408C78.6637 8.75803 79.2498 8.48445 79.9324 8.48445ZM22.9555 20.8174H2.99371C2.20003 20.8164 1.43914 20.5018 0.877921 19.9425C0.316705 19.3832 0.000981671 18.6249 0 17.834V2.98342C0.000981671 2.19247 0.316705 1.43419 0.877921 0.874905C1.43914 0.315617 2.20003 0.000978297 2.99371 0H86.161C86.9546 0.000978297 87.7155 0.315617 88.2768 0.874905C88.838 1.43419 89.1537 2.19247 89.1547 2.98342V17.8377C89.1537 18.6286 88.838 19.3869 88.2768 19.9462C87.7155 20.5055 86.9546 20.8201 86.161 20.8211H67.0858C66.7668 20.8211 66.5071 20.5623 66.5071 20.2444C66.5071 19.9264 66.7668 19.6677 67.0858 19.6677H86.161C87.1737 19.6677 87.9935 18.8469 87.9935 17.8414V2.98342C87.9935 1.97416 87.17 1.15714 86.161 1.15714H2.99371C1.98097 1.15714 1.16113 1.97786 1.16113 2.98342V17.834C1.16113 18.8432 1.98468 19.6603 2.99371 19.6603H22.9555C23.2745 19.6603 23.5342 19.9191 23.5342 20.237C23.5342 20.5549 23.2745 20.8137 22.9555 20.8137V20.8174ZM89.6852 1.15344C89.6852 0.994474 89.7148 0.846597 89.7779 0.706114C89.8373 0.56563 89.9226 0.443632 90.0265 0.340118C90.1303 0.236603 90.2527 0.151574 90.3937 0.0924232C90.5355 0.0317167 90.6882 0.000276488 90.8426 0C91.0021 0 91.1505 0.0295754 91.2915 0.0924232C91.4324 0.155271 91.5548 0.236603 91.6587 0.340118C91.7626 0.443632 91.8479 0.56563 91.9073 0.706114C91.9682 0.84745 91.9997 0.99962 92 1.15344C92 1.31241 91.9703 1.46029 91.9073 1.60077C91.8442 1.74125 91.7626 1.86325 91.6587 1.96677C91.5548 2.07028 91.4324 2.15531 91.2915 2.21446C91.1496 2.27517 90.9969 2.30661 90.8426 2.30688C90.6831 2.30688 90.5347 2.27731 90.3937 2.21446C90.2527 2.15531 90.1303 2.07028 90.0265 1.96677C89.9226 1.86325 89.8373 1.74125 89.7779 1.60077C89.7148 1.46029 89.6852 1.31241 89.6852 1.15344ZM89.8892 1.15344C89.8892 1.28283 89.9152 1.40853 89.9634 1.52313C90.0111 1.63638 90.0804 1.73933 90.1674 1.82628C90.2527 1.91131 90.3529 1.98155 90.4716 2.02961C90.5866 2.07767 90.7127 2.10355 90.8426 2.10355C90.9724 2.10355 91.0985 2.07767 91.2136 2.02961C91.3272 1.98207 91.4305 1.91302 91.5177 1.82628C91.6031 1.74125 91.6735 1.64144 91.7218 1.52313C91.77 1.40853 91.796 1.28283 91.796 1.15344C91.796 1.02405 91.77 0.898354 91.7218 0.783749C91.6741 0.670507 91.6048 0.567558 91.5177 0.480601C91.4324 0.395572 91.3323 0.32533 91.2136 0.27727C91.0985 0.22921 90.9724 0.203331 90.8426 0.203331C90.7127 0.203331 90.5866 0.22921 90.4716 0.27727C90.358 0.324816 90.2547 0.393867 90.1674 0.480601C90.0821 0.56563 90.0116 0.665447 89.9634 0.783749C89.9152 0.898354 89.8892 1.02405 89.8892 1.15344ZM90.3826 0.51757H90.8685C91.0206 0.51757 91.1319 0.550843 91.2024 0.61369C91.2729 0.680235 91.31 0.772658 91.31 0.894657C91.31 1.00556 91.2803 1.0869 91.2247 1.14235C91.169 1.19781 91.0985 1.23108 91.0095 1.23847L91.336 1.76713H91.0948L90.7832 1.25326H90.6163V1.76713H90.3863V0.513873L90.3826 0.51757ZM90.6126 1.06102H90.7795L90.8871 1.05732C90.9201 1.0543 90.9525 1.04684 90.9836 1.03514C91.0112 1.02444 91.0356 1.00658 91.054 0.983383C91.0726 0.961202 91.08 0.927929 91.08 0.887263C91.08 0.846597 91.0726 0.813325 91.054 0.791143C91.0356 0.767949 91.0112 0.750082 90.9836 0.739386C90.9525 0.727688 90.9201 0.720227 90.8871 0.717204H90.7795H90.6126V1.06841V1.06102Z" fill="white"/>
</g>
</svg>
