<svg width="31" height="32" viewBox="0 0 31 32" fill="none" xmlns="http://www.w3.org/2000/svg">
<g id="medical-square">
<g id="Icon">
<path d="M3.875 10.4C3.875 8.15979 3.875 7.03969 4.29735 6.18404C4.66886 5.43139 5.26166 4.81947 5.99079 4.43597C6.81969 4 7.9048 4 10.075 4H20.925C23.0952 4 24.1803 4 25.0092 4.43597C25.7383 4.81947 26.3311 5.43139 26.7026 6.18404C27.125 7.03969 27.125 8.15979 27.125 10.4V21.6C27.125 23.8402 27.125 24.9603 26.7026 25.816C26.3311 26.5686 25.7383 27.1805 25.0092 27.564C24.1803 28 23.0952 28 20.925 28H10.075C7.9048 28 6.81969 28 5.99079 27.564C5.26166 27.1805 4.66886 26.5686 4.29735 25.816C3.875 24.9603 3.875 23.8402 3.875 21.6V10.4Z" stroke="#00539B" stroke-width="2" stroke-linecap="round" stroke-linejoin="round"/>
<path d="M17.8681 9.73333C17.8681 9.35997 17.8681 9.17328 17.7977 9.03067C17.7357 8.90523 17.6369 8.80324 17.5154 8.73933C17.3773 8.66667 17.1964 8.66667 16.8347 8.66667H14.1653C13.8036 8.66667 13.6227 8.66667 13.4846 8.73933C13.3631 8.80324 13.2643 8.90523 13.2023 9.03067C13.1319 9.17328 13.1319 9.35997 13.1319 9.73333V12.4889C13.1319 12.8623 13.1319 13.0489 13.0616 13.1915C12.9996 13.317 12.9008 13.419 12.7793 13.4829C12.6412 13.5556 12.4603 13.5556 12.0986 13.5556H9.42917C9.06747 13.5556 8.88662 13.5556 8.74846 13.6282C8.62694 13.6921 8.52814 13.7941 8.46622 13.9196C8.39583 14.0622 8.39583 14.2489 8.39583 14.6222V17.3778C8.39583 17.7511 8.39583 17.9378 8.46622 18.0804C8.52814 18.2059 8.62694 18.3079 8.74846 18.3718C8.88662 18.4444 9.06747 18.4444 9.42917 18.4444H12.0986C12.4603 18.4444 12.6412 18.4444 12.7793 18.5171C12.9008 18.581 12.9996 18.683 13.0616 18.8085C13.1319 18.9511 13.1319 19.1377 13.1319 19.5111V22.2667C13.1319 22.64 13.1319 22.8267 13.2023 22.9693C13.2643 23.0948 13.3631 23.1968 13.4846 23.2607C13.6227 23.3333 13.8036 23.3333 14.1653 23.3333H16.8347C17.1964 23.3333 17.3773 23.3333 17.5154 23.2607C17.6369 23.1968 17.7357 23.0948 17.7977 22.9693C17.8681 22.8267 17.8681 22.64 17.8681 22.2667V19.5111C17.8681 19.1377 17.8681 18.9511 17.9384 18.8085C18.0004 18.683 18.0992 18.581 18.2207 18.5171C18.3588 18.4444 18.5397 18.4444 18.9014 18.4444H21.5708C21.9325 18.4444 22.1134 18.4444 22.2515 18.3718C22.3731 18.3079 22.4719 18.2059 22.5338 18.0804C22.6042 17.9378 22.6042 17.7511 22.6042 17.3778V14.6222C22.6042 14.2489 22.6042 14.0622 22.5338 13.9196C22.4719 13.7941 22.3731 13.6921 22.2515 13.6282C22.1134 13.5556 21.9325 13.5556 21.5708 13.5556H18.9014C18.5397 13.5556 18.3588 13.5556 18.2207 13.4829C18.0992 13.419 18.0004 13.317 17.9384 13.1915C17.8681 13.0489 17.8681 12.8623 17.8681 12.4889V9.73333Z" stroke="#00539B" stroke-width="2" stroke-linecap="round" stroke-linejoin="round"/>
</g>
</g>
</svg>
