<svg width="31" height="32" viewBox="0 0 31 32" fill="none" xmlns="http://www.w3.org/2000/svg">
<g id="image-user-plus">
<path id="Icon" d="M24.5417 10.6667V2.66675M20.6667 6.66675H28.4167M28.4167 16.0001V22.9334C28.4167 25.1736 28.4167 26.2937 27.9944 27.1494C27.6228 27.902 27.03 28.5139 26.3009 28.8974C25.472 29.3334 24.3869 29.3334 22.2167 29.3334H8.78337C6.61317 29.3334 5.52807 29.3334 4.69916 28.8974C3.97003 28.5139 3.37723 27.902 3.00572 27.1494C2.58337 26.2937 2.58337 25.1736 2.58337 22.9334V9.06675C2.58337 6.82654 2.58337 5.70643 3.00572 4.85079C3.37723 4.09814 3.97003 3.48622 4.69916 3.10272C5.52807 2.66675 6.61317 2.66675 8.78337 2.66675H15.5M2.77162 26.5685C3.3776 24.3182 5.37699 22.6667 7.75004 22.6667H16.7917C17.9921 22.6667 18.5922 22.6667 19.0913 22.7692C21.1409 23.1901 22.7431 24.8439 23.1508 26.9596C23.25 27.4748 23.25 28.0943 23.25 29.3334M18.0834 12.6667C18.0834 15.6123 15.7702 18.0001 12.9167 18.0001C10.0632 18.0001 7.75004 15.6123 7.75004 12.6667C7.75004 9.72123 10.0632 7.33341 12.9167 7.33341C15.7702 7.33341 18.0834 9.72123 18.0834 12.6667Z" stroke="#00539B" stroke-width="2" stroke-linecap="round" stroke-linejoin="round"/>
</g>
</svg>
