<svg width="35" height="33" viewBox="0 0 35 33" fill="none" xmlns="http://www.w3.org/2000/svg">
<g id="Group 6828">
<g id="Group 6827">
<g id="Group 238">
<path id="Ellipse 8" d="M32.5 16.8192C32.5 25.2798 25.6354 32.1393 17.1666 32.1393C8.69785 32.1393 1.83326 25.2798 1.83326 16.8192C1.83326 8.35847 8.69785 1.49902 17.1666 1.49902C25.6354 1.49902 32.5 8.35847 32.5 16.8192Z" stroke="#FFA500"/>
<path id="Ellipse 9" d="M34.5 16.3197C34.5 25.0422 27.202 32.1394 18.1666 32.1394C9.13124 32.1394 1.83326 25.0422 1.83326 16.3197C1.83326 7.59722 9.13124 0.5 18.1666 0.5C27.202 0.5 34.5 7.59722 34.5 16.3197Z" stroke="#FFA500"/>
<path id="Ellipse 10" d="M32.5001 16.3197C32.5001 25.0515 25.3418 32.1394 16.5 32.1394C7.65827 32.1394 0.5 25.0515 0.5 16.3197C0.5 7.58789 7.65827 0.5 16.5 0.5C25.3418 0.5 32.5001 7.58789 32.5001 16.3197Z" stroke="#FFA500"/>
</g>
</g>
<path id="Vector" fill-rule="evenodd" clip-rule="evenodd" d="M17.5 7C12.2532 7 8 11.4894 8 17.0278C8 22.5661 12.2532 27.0556 17.5 27.0556C22.7469 27.0556 27 22.5661 27 17.0278C27 11.4894 22.7469 7 17.5 7ZM14.175 14.5208C14.175 14.0599 14.261 13.6035 14.4281 13.1777C14.5952 12.7519 14.8401 12.365 15.1489 12.0391C15.4576 11.7132 15.8242 11.4547 16.2276 11.2783C16.631 11.1019 17.0634 11.0111 17.5 11.0111C17.9366 11.0111 18.369 11.1019 18.7724 11.2783C19.1758 11.4547 19.5424 11.7132 19.8511 12.0391C20.1599 12.365 20.4048 12.7519 20.5719 13.1777C20.739 13.6035 20.825 14.0599 20.825 14.5208C20.825 15.4517 20.4747 16.3444 19.8511 17.0026C19.2276 17.6608 18.3818 18.0306 17.5 18.0306C16.6182 18.0306 15.7724 17.6608 15.1489 17.0026C14.5253 16.3444 14.175 15.4517 14.175 14.5208ZM23.4451 22.0256C22.734 22.9699 21.8299 23.7323 20.8005 24.256C19.771 24.7797 18.6428 25.0511 17.5 25.05C16.3572 25.0511 15.229 24.7797 14.1995 24.256C13.1701 23.7323 12.266 22.9699 11.5549 22.0256C13.0949 20.8594 15.1963 20.0361 17.5 20.0361C19.8038 20.0361 21.9051 20.8594 23.4451 22.0256Z" fill="#6A6A6A"/>
</g>
</svg>
