<svg width="57" height="55" viewBox="0 0 57 55" fill="none" xmlns="http://www.w3.org/2000/svg">
<path d="M52.6835 28.277C52.6835 41.9374 41.6001 53.0128 27.9262 53.0128C14.2523 53.0128 3.16888 41.9374 3.16888 28.277C3.16888 14.6166 14.2523 3.54126 27.9262 3.54126C41.6001 3.54126 52.6835 14.6166 52.6835 28.277Z" stroke="#FFA500" stroke-width="2"/>
<path d="M55.9371 27.4645C55.9371 41.5455 44.1539 53.013 29.553 53.013C14.952 53.013 3.16888 41.5455 3.16888 27.4645C3.16888 13.3834 14.952 1.91602 29.553 1.91602C44.1539 1.91602 55.9371 13.3834 55.9371 27.4645Z" stroke="#FFA500" stroke-width="2"/>
<path d="M52.6836 27.4645C52.6836 41.5642 41.1243 53.013 26.8418 53.013C12.5594 53.013 1 41.5642 1 27.4645C1 13.3648 12.5594 1.91602 26.8418 1.91602C41.1243 1.91602 52.6836 13.3648 52.6836 27.4645Z" stroke="#FFA500" stroke-width="2"/>
<path d="M21.3958 38.6667H19.4583C18.0316 38.6667 16.875 37.4728 16.875 36.0001V17.3334C16.875 15.8607 18.0316 14.6667 19.4583 14.6667H37.5417C38.9684 14.6667 40.125 15.8607 40.125 17.3334V36.0001C40.125 37.4728 38.9684 38.6667 37.5417 38.6667H35.6042M28.5 37.3334C30.6401 37.3334 32.375 35.5426 32.375 33.3334C32.375 31.1243 30.6401 29.3334 28.5 29.3334C26.3599 29.3334 24.625 31.1243 24.625 33.3334C24.625 35.5426 26.3599 37.3334 28.5 37.3334ZM28.5 37.3334L28.5277 37.3331L24.4037 41.5902L20.7503 37.8189L24.6504 33.7931M28.5 37.3334L32.624 41.5902L36.2774 37.8189L32.3774 33.7931M24.625 20.0001H32.375M22.0417 24.6667H34.9583" stroke="white" stroke-width="2" stroke-linecap="round" stroke-linejoin="round"/>
</svg>
