<svg width="199" height="48" viewBox="0 0 199 48" fill="none" xmlns="http://www.w3.org/2000/svg">
<g id="Group 6807">
<path id="Vector" d="M119.528 38.023C119.528 37.7121 119.424 37.457 119.208 37.2656C118.992 37.0663 118.728 36.9707 118.4 36.9707C117.072 36.9707 115.464 38.039 113.576 40.1756L114.08 39.4182C114.776 38.3818 115.128 37.6722 115.128 37.2975C115.128 37.0584 115.032 36.9388 114.84 36.9388C113.984 36.9388 113.376 37.162 113.016 37.6244C112.824 37.8636 112.576 38.2463 112.272 38.7725L110.952 40.9968L109.328 43.7473L109.168 44.0263H109.16C108.781 44.2778 108.379 44.4939 107.96 44.6721C107.568 44.8395 107.08 44.991 106.48 45.1265C105.88 45.2701 105.28 45.3338 104.688 45.3338C104.096 45.3338 103.664 45.1903 103.416 44.9113C103.16 44.6322 103.04 44.2894 103.04 43.8988C103.04 43.3646 103.16 42.8464 103.4 42.3362C104.264 42.5514 105.056 42.663 105.784 42.663C106.6 42.663 107.336 42.5275 108 42.2564C108.872 41.8977 109.616 41.236 110.04 40.4467C110.448 39.6893 110.704 38.4775 110.08 37.5766C109.624 36.9228 108.456 36.0538 105.712 37.5208C104.936 37.9353 104.216 38.4934 103.52 39.2189V39.203C102.824 39.8727 102.256 40.646 101.816 41.523C101.546 42.0597 101.352 42.6312 101.24 43.2211L100.92 43.4842C100.8 43.5878 100.536 43.7632 100.12 44.0263C99.7119 44.2894 99.3119 44.5047 98.9199 44.6641C98.528 44.8316 98.04 44.983 97.44 45.1186C96.84 45.2621 96.2399 45.3259 95.6479 45.3259C95.0559 45.3259 94.624 45.1823 94.3759 44.9033C94.1199 44.6243 94 44.2815 94 43.8908C94 42.9182 94.3999 41.9774 95.1999 41.0765C95.559 40.6718 95.9496 40.2959 96.3679 39.9524C96.8041 39.6025 97.2639 39.2829 97.7439 38.9957C98.248 38.6927 98.7199 38.5413 99.1599 38.5413C99.2479 38.5413 99.296 38.5971 99.296 38.7166C99.296 38.8362 99.1759 39.0515 98.9359 39.3784C98.6959 39.7052 98.576 39.9364 98.576 40.064C98.576 40.5503 98.8319 40.7975 99.3439 40.7975C99.7839 40.7975 100.216 40.4945 100.648 39.8966C101.072 39.2907 101.288 38.7804 101.288 38.3499C101.294 38.1501 101.249 37.9519 101.158 37.7737C101.068 37.5954 100.933 37.4426 100.768 37.3294C100.424 37.0823 100.04 36.9547 99.5999 36.9547C98.7039 36.9547 97.7999 37.162 96.8799 37.5766C95.9882 37.9753 95.1711 38.5226 94.464 39.195C93.7696 39.866 93.196 40.6507 92.7679 41.515C92.3279 42.3999 92.1039 43.2769 92.1039 44.1619C92.1039 45.0468 92.4399 45.7564 93.1119 46.3065C93.7437 46.8413 94.547 47.1327 95.3759 47.1276C96.216 47.1276 97.2239 46.9044 98.4159 46.4659C99.0159 46.2507 99.5839 45.9955 100.112 45.7085C100.525 45.4831 100.902 45.1984 101.232 44.8635C101.368 45.4295 101.672 45.9078 102.16 46.3065C102.792 46.8413 103.595 47.1327 104.424 47.1276C105.264 47.1276 106.272 46.9044 107.464 46.4659L108.128 46.2028C108.144 46.2507 108.168 46.2905 108.2 46.3144C108.264 46.3623 108.432 46.442 108.72 46.5457C109 46.6493 109.232 46.7051 109.408 46.7051C109.584 46.7051 109.792 46.5377 110.04 46.1869L112.424 43.261L115.088 40.5423C116.136 39.5298 116.784 39.0116 117.048 38.9877L117.072 39.0116C116.48 39.7052 116.184 40.3271 116.184 40.8772C116.18 41.1093 116.254 41.3362 116.392 41.523C116.528 41.7063 116.728 41.802 116.976 41.802C117.224 41.802 117.456 41.6744 117.656 41.4193C118.032 40.9171 118.44 40.3032 118.888 39.5697C119.336 38.8362 119.552 38.318 119.552 38.0071L119.528 38.023ZM106.528 39.0914C107.736 38.4456 108.456 38.4057 108.584 38.5891C108.696 38.7485 108.664 39.195 108.44 39.6096C108.208 40.0401 107.784 40.4148 107.296 40.6141C106.544 40.925 105.624 40.9729 104.496 40.7656C105.144 40.0241 105.832 39.4661 106.528 39.0914ZM138.248 43.2849C138.216 43.0537 138.12 42.9421 137.968 42.9421C137.872 42.9421 137.8 42.966 137.752 42.9979C137.704 43.0377 137.56 43.1972 137.312 43.4683L136.56 44.2655C136.304 44.5286 136.008 44.7678 135.68 44.999C135.352 45.2222 135.064 45.3418 134.824 45.3418C134.584 45.3418 134.464 45.1265 134.464 44.6801C134.461 44.5671 134.475 44.4544 134.504 44.3452C134.624 43.6995 134.888 42.9182 135.304 42.0093L136.432 39.761C136.768 39.1711 136.992 38.8283 137.096 38.7246C137.2 38.621 137.248 38.4615 137.248 38.2303C137.248 37.8158 136.944 37.6085 136.336 37.6085C136.072 37.6085 135.872 37.6483 135.744 37.7201C135.608 37.7918 135.448 37.9752 135.256 38.2622C135.184 38.047 135.008 37.8636 134.736 37.7201C134.464 37.5766 134.112 37.5048 133.68 37.5048C132.56 37.5048 131.336 38.023 130.008 39.0595C129.377 39.5525 128.794 40.1023 128.264 40.7018C127.736 41.3077 127.312 41.9694 126.984 42.7029C126.848 42.9979 126.752 43.3008 126.672 43.5958L126.008 44.0343C125.592 44.2974 125.192 44.5127 124.808 44.6721C124.416 44.8395 123.928 44.991 123.328 45.1265C122.728 45.2701 122.128 45.3338 121.536 45.3338C120.944 45.3338 120.512 45.1903 120.264 44.9113C120.008 44.6322 119.888 44.2894 119.888 43.8988C119.888 42.9261 120.288 41.9854 121.088 41.0845C121.447 40.6798 121.838 40.3039 122.256 39.9604C122.692 39.6105 123.152 39.2909 123.632 39.0037C124.136 38.7007 124.608 38.5492 125.048 38.5492C125.136 38.5492 125.184 38.605 125.184 38.7246C125.184 38.8442 125.064 39.0595 124.824 39.3863C124.584 39.7132 124.464 39.9444 124.464 40.072C124.464 40.5583 124.72 40.8054 125.232 40.8054C125.672 40.8054 126.104 40.5025 126.536 39.9045C126.968 39.2986 127.176 38.7884 127.176 38.3579C127.182 38.158 127.137 37.9599 127.046 37.7816C126.956 37.6034 126.821 37.4506 126.656 37.3374C126.312 37.0903 125.92 36.9627 125.488 36.9627C124.592 36.9627 123.688 37.17 122.768 37.5845C121.876 37.9833 121.059 38.5306 120.352 39.203C119.658 39.874 119.084 40.6587 118.656 41.523C118.216 42.4079 117.992 43.2849 117.992 44.1698C117.992 45.0548 118.328 45.7643 119 46.3144C119.632 46.8493 120.435 47.1407 121.264 47.1356C122.104 47.1356 123.112 46.9124 124.304 46.4739C124.904 46.2586 125.472 46.0035 126 45.7165C126.192 45.6129 126.368 45.4933 126.528 45.3737C126.608 45.86 126.816 46.2586 127.152 46.5696C127.496 46.8964 127.944 47.0639 128.488 47.0639C129.032 47.0639 129.736 46.7609 130.592 46.163C131.456 45.565 132.216 44.8316 132.88 43.9705C132.72 44.3293 132.64 44.7439 132.64 45.2222C132.638 45.6946 132.799 46.1533 133.096 46.5217C133.4 46.9124 133.872 47.1117 134.52 47.1117C135.168 47.1117 135.88 46.7928 136.672 46.155C137.464 45.5172 137.968 44.9671 138.2 44.5127C138.248 44.417 138.272 44.2416 138.272 43.9944C138.272 43.7545 138.256 43.5147 138.224 43.2769L138.248 43.2849ZM132.568 41.8578C132.232 42.2724 131.552 42.9182 130.528 43.8031C129.504 44.6881 128.88 45.1265 128.656 45.1265C128.496 45.1265 128.416 44.991 128.416 44.704C128.416 44.417 128.632 43.9067 129.072 43.1494C129.512 42.392 129.984 41.7382 130.504 41.1961C131.968 39.6813 133.384 38.9239 134.752 38.9239L132.568 41.8578ZM77.5359 36.014C77.7679 36.014 78.3839 35.7349 79.3679 35.1848C80.3519 34.6347 80.952 34.252 81.1679 34.0448C81.84 33.6063 82.176 33.0562 82.176 32.4024C82.176 32.1553 82.104 31.8922 81.952 31.6211C81.8 31.3421 81.6479 31.2065 81.4879 31.2065C81.3279 31.2065 81.2159 31.2783 81.1599 31.4218C81.1083 31.5688 81.0203 31.7004 80.9039 31.8045C80.7839 31.9161 80.5679 32.0835 80.2559 32.2988L79.1599 33.1279C78.7439 33.4628 78.3599 33.8215 78.0159 34.1962C77.6755 34.5618 77.4093 34.9895 77.232 35.4559C77.1955 35.5276 77.1764 35.6067 77.176 35.6871C77.176 35.8944 77.296 35.998 77.528 35.998L77.5359 36.014ZM88.3119 36.4843C87.4079 36.4843 86.2879 36.7634 84.9599 37.3135C84.2879 37.5925 83.6559 37.9194 83.0719 38.2861C82.4879 38.6529 81.9999 39.0914 81.6159 39.6096C81.2239 40.1278 81.0319 40.646 81.0319 41.1642C81.0319 41.6824 81.2159 42.081 81.5999 42.3441C81.7617 42.4616 81.9361 42.5605 82.12 42.6391C82.288 42.7109 82.52 42.7906 82.808 42.8703L84.1919 43.2211L85.552 43.5958C85.816 43.6995 85.952 43.8111 85.952 43.9466C85.952 44.2336 85.584 44.5206 84.84 44.8076C84.096 45.0947 83.2479 45.2382 82.288 45.2382C82.16 45.2382 82.016 45.1664 81.864 45.0229C81.712 44.8794 81.632 44.712 81.632 44.5047V44.3133C81.6399 44.2017 81.5599 44.13 81.4159 44.0901V44.0104C81.4164 43.7704 81.4004 43.5307 81.3679 43.2929C81.3359 43.0617 81.24 42.95 81.0879 42.95C80.9919 42.95 80.9199 42.974 80.8719 43.0059C80.8239 43.0457 80.6799 43.2052 80.4319 43.4762L79.6799 44.2735C79.4239 44.5366 79.1279 44.7758 78.7999 45.007C78.472 45.2302 78.184 45.3498 77.944 45.3498C77.704 45.3498 77.584 45.1345 77.584 44.6881C77.584 44.5445 77.5919 44.4329 77.6159 44.3532C77.7359 43.7074 77.9999 42.9261 78.4159 42.0173L79.5439 39.769L80.208 38.7326C80.312 38.6289 80.3599 38.4695 80.3599 38.2383C80.3599 37.8237 80.0559 37.6164 79.4479 37.6164C79.1839 37.6164 78.9839 37.6563 78.8559 37.7281C78.7199 37.7998 78.5599 37.9832 78.3679 38.2702C78.2959 38.0549 78.1199 37.8716 77.8479 37.7281C77.5759 37.5846 77.2239 37.5128 76.7919 37.5128C75.6719 37.5128 74.448 38.031 73.12 39.0674C72.4894 39.5605 71.9056 40.1102 71.376 40.7098C70.848 41.3157 70.424 41.9774 70.096 42.7109C69.9339 43.0716 69.8105 43.4484 69.728 43.835L69.328 44.2097C69.0364 44.4709 68.7263 44.7107 68.4 44.9272C68.0479 45.1584 67.7839 45.286 67.5919 45.3019C67.3999 45.3179 67.232 45.294 67.096 45.2222C66.96 45.1584 66.888 44.9352 66.888 44.5685C66.888 44.3054 67.208 43.6676 67.856 42.6471L69.7919 39.6096C70.4399 38.5971 70.768 37.9593 70.768 37.6962C70.768 37.4331 70.6639 37.2019 70.4559 37.0105C70.2479 36.8192 69.992 36.7235 69.688 36.7235C68.8 36.7235 67.92 36.9946 67.056 37.5367C66.6446 37.8076 66.2542 38.1087 65.888 38.4376L64.8479 39.4342L63.832 40.5344L62.896 41.5309C62.912 41.507 63.016 41.3874 63.2 41.1562L63.576 40.7018L63.9039 40.2633C64.0639 40.056 64.1759 39.8806 64.2479 39.7451L64.496 39.2667C64.5857 39.0954 64.653 38.9131 64.696 38.7246C64.736 38.5492 64.752 38.3419 64.752 38.0788C64.752 37.8158 64.648 37.5766 64.432 37.3454C64.216 37.1221 63.912 37.0026 63.52 37.0026C63.128 37.0026 62.48 37.2816 61.6 37.8317C60.712 38.3898 59.728 39.2269 58.632 40.359L59.232 39.6175L60.144 38.4695C60.4 38.1347 60.5599 37.8955 60.624 37.744C60.688 37.5925 60.72 37.4809 60.72 37.3932C60.72 37.0823 60.6159 36.9228 60.4159 36.9228C60.0799 36.9228 59.736 36.9786 59.376 37.0982C59.016 37.2178 58.76 37.3852 58.6 37.6085C57.144 39.6574 55.6319 42.392 54.0719 45.8122C54.0079 46.0195 53.976 46.163 53.976 46.2507C53.976 46.3384 53.9999 46.3942 54.0479 46.4261C54.0959 46.458 54.168 46.5138 54.256 46.5775C54.352 46.6493 54.432 46.6971 54.512 46.721H54.728L55.32 46.745C55.392 46.745 55.528 46.6254 55.744 46.3862C55.952 46.147 56.096 45.9716 56.168 45.86C57.28 43.9546 58.8479 42.0332 60.8719 40.1039C61.6079 39.4023 62.096 39.0515 62.328 39.0515C62.56 39.0515 62.6799 39.1472 62.6799 39.3465C62.6799 39.5458 62.04 40.7177 60.768 42.8783L58.856 46.2347C58.856 46.3942 58.9999 46.5217 59.2799 46.6254C59.5599 46.721 59.832 46.7769 60.088 46.7769C60.344 46.7769 60.536 46.6971 60.656 46.5377L62.6479 43.9865C63.7119 42.7188 64.976 41.4034 66.44 40.0401C67.296 39.2428 67.848 38.8442 68.096 38.8442C68.16 38.8442 68.1919 38.8602 68.1919 38.9C68.1919 38.9399 68.0159 39.195 67.6719 39.6733L66.528 41.2678C66.0908 41.8933 65.7081 42.5547 65.384 43.245C65.032 43.9705 64.864 44.5924 64.864 45.1026C64.864 45.6129 65.0239 46.0514 65.3359 46.4261C65.6479 46.8008 66.2239 47.024 67.0479 47.1037C67.0879 47.1037 67.152 47.1197 67.24 47.1197C67.968 47.1197 68.728 46.7928 69.52 46.147L69.8 45.9078C69.912 46.155 70.064 46.3782 70.264 46.5616C70.608 46.8885 71.056 47.0559 71.6 47.0559C72.144 47.0559 72.8479 46.7529 73.7039 46.155C74.5679 45.5571 75.3279 44.8236 75.9919 43.9626C75.8319 44.3213 75.752 44.7359 75.752 45.2142C75.7503 45.6866 75.9113 46.1453 76.208 46.5138C76.512 46.9044 76.9839 47.1037 77.632 47.1037C78.28 47.1037 78.992 46.7848 79.784 46.147C79.888 46.0673 79.9839 45.9876 80.0719 45.9078C80.1359 46.2028 80.3039 46.4659 80.5919 46.6892C80.9599 46.9841 81.616 47.1276 82.576 47.1276C83.5359 47.1276 84.6559 46.8087 85.9439 46.1789C86.5439 45.8919 87.0479 45.5172 87.4559 45.0628C87.8639 44.6083 88.0719 44.122 88.0719 43.6118C88.0719 43.3646 87.9679 43.0856 87.7679 42.7826C87.5679 42.4797 87.208 42.2086 86.688 41.9694C86.1679 41.7303 85.0799 41.4432 83.4239 41.1164C83.0559 41.0446 82.8719 40.9489 82.8719 40.8373C82.8719 40.7257 83.0079 40.5424 83.2799 40.2952C83.5519 40.0481 83.8959 39.7929 84.3039 39.5139C84.7687 39.2158 85.265 38.9699 85.784 38.7804C86.36 38.5652 86.912 38.4376 87.44 38.4137C87.408 38.5253 87.3519 38.6289 87.2719 38.7326C87.1919 38.8362 87.152 38.9319 87.152 39.0276C87.152 39.1232 87.184 39.1791 87.24 39.2109C87.2997 39.234 87.3521 39.2725 87.3919 39.3226C87.4319 39.3784 87.4799 39.4182 87.5439 39.4501C87.6079 39.482 87.7519 39.498 87.9759 39.498C88.1999 39.498 88.5119 39.4023 88.9039 39.2109C89.2959 39.0196 89.5759 38.8043 89.7599 38.5652C89.9439 38.326 90.0319 37.9911 90.0319 37.5686V37.4809C90.0319 37.3135 89.9999 37.162 89.9359 37.0265C89.7279 36.6438 89.1759 36.4525 88.2879 36.4525L88.3119 36.4843ZM75.696 41.8658C75.36 42.2804 74.68 42.9261 73.656 43.8111C72.632 44.696 72.008 45.1345 71.784 45.1345C71.624 45.1345 71.544 44.999 71.544 44.712C71.544 44.425 71.7599 43.9147 72.1999 43.1573C72.6399 42.3999 73.1119 41.7462 73.632 41.2041C75.096 39.6893 76.5119 38.9319 77.8799 38.9319L75.696 41.8658Z" fill="#FFA500"/>
<path id="Vector_2" d="M14.832 29.7933V11.2492V10.8586H14.44L12.512 10.8665H12.128V11.2492V32.2089V32.5916H12.512L21.352 32.5996H21.736V32.2169V30.1759V29.7933H21.352H14.832ZM38.96 16.0008H36.328V17.8026C35.808 17.2366 35.208 16.7821 34.528 16.4234C33.52 15.9052 32.4 15.6421 31.216 15.6421H31.208C28.888 15.6421 26.92 16.4871 25.384 18.1534C23.848 19.8117 23.064 21.9005 23.064 24.364C23.064 26.8275 23.832 28.8445 25.336 30.5028C26.856 32.1611 28.776 33.0062 31.048 33.0062C32.28 33.0062 33.448 32.7351 34.504 32.193C35.216 31.8263 35.832 31.3638 36.344 30.8217V32.5916H38.968V16.0008H38.96ZM31.144 18.2969C32.512 18.2969 33.688 18.8709 34.744 20.0429C35.816 21.2308 36.336 22.5861 36.336 24.1806C36.336 25.8867 35.808 27.3537 34.752 28.5575C33.696 29.7614 32.504 30.3513 31.096 30.3513C29.688 30.3513 28.408 29.7933 27.36 28.6532C26.32 27.5211 25.784 26.11 25.776 24.4437C25.776 22.6738 26.296 21.2308 27.36 20.0509C28.408 18.8709 29.648 18.2969 31.136 18.2969H31.144ZM57.904 11.1137L57.808 10.8586H54.944L54.848 11.1216L47.24 32.0734L47.048 32.5836H49.912L50 32.3365L52.256 26.0143H60.448L62.712 32.3365L62.8 32.5916H65.68L65.496 32.0734L57.896 11.1137H57.904ZM59.512 23.3674H53.208L56.328 14.3824L59.504 23.3674H59.512ZM74.072 16.1364V15.7457L73.672 15.7617C72.88 15.7856 72.168 15.9769 71.56 16.3357C71.232 16.527 70.92 16.7901 70.616 17.101V15.9929H68.048V32.5916H70.76V22.6579C70.76 21.2946 70.992 20.314 71.448 19.7399C71.888 19.1819 72.664 18.847 73.736 18.7354L74.088 18.7035V18.3527L74.072 16.1364ZM91.432 15.9929H88.816V17.7946C88.2973 17.2369 87.6856 16.773 87.008 16.4234C86 15.9052 84.88 15.6421 83.688 15.6421C81.368 15.6421 79.4 16.4871 77.856 18.1534C76.32 19.8117 75.536 21.9085 75.544 24.364C75.544 26.7797 76.304 28.8445 77.816 30.4948C79.328 32.1611 81.256 32.9982 83.536 32.9982C84.7317 33.0075 85.9119 32.7285 86.976 32.185C87.688 31.8183 88.304 31.3559 88.824 30.8058V32.5836H91.448V15.9929H91.432ZM83.568 30.5427V30.3513C82.104 30.3513 80.888 29.7933 79.832 28.6532C78.776 27.5052 78.264 26.1259 78.264 24.4437C78.264 22.7615 78.792 21.2148 79.84 20.0429C80.88 18.8789 82.144 18.2969 83.616 18.2969C84.984 18.2969 86.16 18.8709 87.224 20.0429C88.28 21.2228 88.808 22.618 88.808 24.1806C88.808 25.8788 88.28 27.3537 87.224 28.5575C86.176 29.7614 84.976 30.3513 83.56 30.3513V30.5427H83.568ZM108.136 15.9929H105.456V24.1567L105.32 27.0188C105.232 27.5291 105.08 27.9835 104.88 28.3582C104.528 28.988 104.048 29.4744 103.456 29.8172C102.88 30.1441 102.184 30.3115 101.4 30.3115C100.032 30.3115 99.048 29.9129 98.472 29.1236C97.872 28.2944 97.56 26.8275 97.56 24.7706V15.9849H94.904V24.6271C94.904 27.553 95.416 29.6976 96.408 30.9971C97.416 32.3285 99.088 32.9982 101.344 32.9982C102.408 32.9982 103.328 32.8228 104.08 32.4561C104.568 32.2249 105.032 31.898 105.456 31.4914V32.5836H108.136V15.9929ZM118.76 18.2411C119.856 18.2411 120.76 18.4882 121.544 19.0065C122.328 19.5167 123 20.3299 123.552 21.4221L123.664 21.6294H126.552L126.368 21.1112C125.744 19.3732 124.768 17.994 123.48 17.0293C122.192 16.0487 120.68 15.5544 118.992 15.5544C116.744 15.5544 114.808 16.4154 113.24 18.1215C111.68 19.8117 110.896 21.9085 110.896 24.3321C110.896 26.7159 111.672 28.7728 113.216 30.463C114.76 32.1691 116.688 33.0381 118.928 33.0381C120.688 33.0381 122.232 32.5358 123.528 31.5472C124.816 30.5666 125.768 29.1634 126.368 27.3776L126.528 26.8674H123.64L123.544 27.1065C123.104 28.143 122.472 28.9322 121.664 29.4744C120.856 30.0404 119.904 30.3195 118.848 30.3195C117.368 30.3195 116.168 29.7614 115.16 28.6133C114.16 27.4733 113.648 26.0143 113.648 24.2922C113.648 22.5702 114.136 21.1271 115.152 19.9552C116.152 18.7992 117.328 18.2331 118.752 18.2331L118.76 18.2411ZM144.832 15.9929H142.208V17.8026C141.688 17.2445 141.08 16.7821 140.4 16.4234C139.4 15.9052 138.288 15.6421 137.096 15.6421H137.072C134.752 15.6421 132.792 16.4871 131.248 18.1534C129.712 19.8117 128.928 21.8925 128.928 24.356C128.928 26.8195 129.688 28.8366 131.2 30.4948C132.712 32.1611 134.64 32.9982 136.92 33.0062C138.152 33.0062 139.312 32.7351 140.368 32.193C141.08 31.8263 141.696 31.3638 142.216 30.8137V32.5916H144.84V15.9929H144.832ZM137.016 18.2889C138.384 18.2889 139.56 18.8709 140.624 20.0429C141.688 21.2388 142.208 22.5941 142.208 24.1806C142.208 25.8708 141.68 27.3457 140.624 28.5575C139.568 29.7614 138.376 30.3513 136.976 30.3513C135.512 30.3513 134.288 29.7933 133.24 28.6532C132.192 27.5131 131.664 26.094 131.664 24.4437C131.664 22.7057 132.192 21.2228 133.248 20.0429C134.296 18.8709 135.536 18.2969 137.024 18.2889H137.016ZM160.512 18.3607C159.993 17.5002 159.238 16.8058 158.336 16.3596C157.448 15.9052 156.408 15.674 155.256 15.674C154.216 15.674 153.272 15.8653 152.464 16.2241C151.921 16.4734 151.419 16.8041 150.976 17.2047V15.9929H148.352V32.5996H150.984V24.5075L151.112 21.6852C151.2 21.175 151.352 20.7206 151.568 20.3299C151.904 19.708 152.368 19.2297 152.96 18.8948C153.56 18.56 154.232 18.3926 155.04 18.3926C156.408 18.3926 157.36 18.7593 157.96 19.5087C158.568 20.2741 158.88 21.5656 158.88 23.3435V32.5916H161.528V23.9335C161.528 22.4346 161.456 21.2707 161.304 20.4814C161.144 19.6762 160.872 18.9586 160.512 18.3607ZM180.192 16.3835V16.0008H177.568V17.8026C177.051 17.2444 176.442 16.778 175.768 16.4234C174.76 15.9052 173.64 15.6421 172.44 15.6421C170.112 15.6421 168.152 16.4871 166.608 18.1534C165.064 19.8117 164.288 21.9005 164.288 24.356C164.288 26.8115 165.056 28.8445 166.56 30.4948C168.08 32.1531 170 32.9982 172.272 32.9982C173.504 32.9982 174.664 32.7271 175.728 32.185C176.44 31.8263 177.048 31.3638 177.568 30.8137V32.5916H180.192V16.3835ZM172.376 18.2969C173.728 18.2969 174.936 18.8869 175.976 20.0429C177.048 21.2308 177.568 22.5861 177.576 24.1806C177.576 25.8788 177.048 27.3537 175.992 28.5575C174.952 29.7454 173.728 30.3513 172.336 30.3513C170.872 30.3513 169.648 29.7933 168.592 28.6532C167.552 27.5131 167.016 26.102 167.024 24.4437C167.024 22.6977 167.552 21.2228 168.608 20.0429C169.64 18.8869 170.904 18.2969 172.376 18.2969ZM49.504 44.8932H6.456C4.74441 44.8911 3.10353 44.2126 1.89326 43.0064C0.682981 41.8003 0.00211699 40.1651 0 38.4594V6.43381C0.00211699 4.72811 0.682981 3.09287 1.89326 1.88675C3.10353 0.680634 4.74441 0.00210972 6.456 0H185.808C187.52 0.00210972 189.16 0.680634 190.371 1.88675C191.581 3.09287 192.262 4.72811 192.264 6.43381V38.4674C192.262 40.1731 191.581 41.8083 190.371 43.0144C189.16 44.2205 187.52 44.8991 185.808 44.9012H144.672C143.984 44.9012 143.424 44.3431 143.424 43.6575C143.424 42.9718 143.984 42.4137 144.672 42.4137H185.808C187.992 42.4137 189.76 40.6438 189.76 38.4753V6.43381C189.76 4.25732 187.984 2.4954 185.808 2.4954H6.456C4.272 2.4954 2.504 4.26529 2.504 6.43381V38.4594C2.504 40.6359 4.28 42.3978 6.456 42.3978H49.504C50.192 42.3978 50.752 42.9559 50.752 43.6415C50.752 44.3271 50.192 44.8852 49.504 44.8852V44.8932ZM193.408 2.48742C193.408 2.14461 193.472 1.8257 193.608 1.52275C193.736 1.21979 193.92 0.956701 194.144 0.733471C194.368 0.510241 194.632 0.326873 194.936 0.199313C195.242 0.0683978 195.571 0.000596252 195.904 0C196.248 0 196.568 0.0637801 196.872 0.199313C197.176 0.334845 197.44 0.510241 197.664 0.733471C197.888 0.956701 198.072 1.21979 198.2 1.52275C198.331 1.82754 198.399 2.1557 198.4 2.48742C198.4 2.83024 198.336 3.14914 198.2 3.4521C198.064 3.75505 197.888 4.01814 197.664 4.24137C197.44 4.4646 197.176 4.64797 196.872 4.77553C196.566 4.90645 196.237 4.97425 195.904 4.97485C195.56 4.97485 195.24 4.91107 194.936 4.77553C194.632 4.64797 194.368 4.4646 194.144 4.24137C193.92 4.01814 193.736 3.75505 193.608 3.4521C193.472 3.14914 193.408 2.83024 193.408 2.48742ZM193.848 2.48742C193.848 2.76646 193.904 3.03753 194.008 3.28467C194.111 3.52888 194.26 3.75089 194.448 3.93842C194.632 4.12179 194.848 4.27326 195.104 4.37691C195.352 4.48055 195.624 4.53636 195.904 4.53636C196.184 4.53636 196.456 4.48055 196.704 4.37691C196.949 4.27437 197.172 4.12546 197.36 3.93842C197.544 3.75505 197.696 3.53979 197.8 3.28467C197.904 3.03753 197.96 2.76646 197.96 2.48742C197.96 2.20839 197.904 1.93732 197.8 1.69017C197.697 1.44596 197.548 1.22395 197.36 1.03643C197.176 0.853059 196.96 0.701581 196.704 0.597938C196.456 0.494296 196.184 0.438488 195.904 0.438488C195.624 0.438488 195.352 0.494296 195.104 0.597938C194.859 0.700473 194.636 0.849383 194.448 1.03643C194.264 1.21979 194.112 1.43505 194.008 1.69017C193.904 1.93732 193.848 2.20839 193.848 2.48742ZM194.912 1.11615H195.96C196.288 1.11615 196.528 1.1879 196.68 1.32344C196.832 1.46694 196.912 1.66625 196.912 1.92935C196.912 2.16852 196.848 2.34392 196.728 2.46351C196.608 2.58309 196.456 2.65485 196.264 2.67079L196.968 3.81086H196.448L195.776 2.70268H195.416V3.81086H194.92V1.10818L194.912 1.11615ZM195.408 2.28811H195.768L196 2.28014C196.071 2.27362 196.141 2.25753 196.208 2.2323C196.268 2.20924 196.32 2.17071 196.36 2.12069C196.4 2.07285 196.416 2.0011 196.416 1.9134C196.416 1.8257 196.4 1.75395 196.36 1.70612C196.32 1.6561 196.268 1.61757 196.208 1.5945C196.141 1.56928 196.071 1.55318 196 1.54667H195.768H195.408V2.30405V2.28811Z" fill="#00539B"/>
</g>
</svg>
