<svg width="35" height="34" viewBox="0 0 35 34" fill="none" xmlns="http://www.w3.org/2000/svg">
<g id="Group 6886">
<g id="Group 6827">
<g id="Group 238">
<path id="Ellipse 8" d="M32.5 17.2625C32.5 25.7232 25.6354 32.5826 17.1666 32.5826C8.69785 32.5826 1.83326 25.7232 1.83326 17.2625C1.83326 8.80183 8.69785 1.94238 17.1666 1.94238C25.6354 1.94238 32.5 8.80183 32.5 17.2625Z" stroke="#FFA500"/>
<path id="Ellipse 9" d="M34.5 16.7631C34.5 25.4856 27.202 32.5828 18.1666 32.5828C9.13124 32.5828 1.83326 25.4856 1.83326 16.7631C1.83326 8.04058 9.13124 0.943359 18.1666 0.943359C27.202 0.943359 34.5 8.04058 34.5 16.7631Z" stroke="#FFA500"/>
<path id="Ellipse 10" d="M32.5001 16.7631C32.5001 25.4949 25.3418 32.5828 16.5 32.5828C7.65827 32.5828 0.5 25.4949 0.5 16.7631C0.5 8.03125 7.65827 0.943359 16.5 0.943359C25.3418 0.943359 32.5001 8.03125 32.5001 16.7631Z" stroke="#FFA500"/>
</g>
</g>
<g id="Group 250">
<path id="Vector" d="M21.931 21.2826H20.6646V19.9336H21.931V21.2826ZM18.1317 21.2826H19.3981V19.9336H18.1317V21.2826ZM24.4639 21.2826H23.1975V19.9336H24.4639V21.2826Z" fill="#00539B"/>
<path id="Vector_2" fill-rule="evenodd" clip-rule="evenodd" d="M11.7994 14.5376V11.165C11.7994 10.5449 11.914 9.93095 12.1368 9.3581C12.3595 8.78524 12.686 8.26473 13.0976 7.82629C13.5092 7.38785 13.9979 7.04006 14.5357 6.80277C15.0735 6.56549 15.6499 6.44336 16.232 6.44336C16.8141 6.44336 17.3905 6.56549 17.9282 6.80277C18.466 7.04006 18.9547 7.38785 19.3663 7.82629C19.7779 8.26473 20.1044 8.78524 20.3271 9.3581C20.5499 9.93095 20.6646 10.5449 20.6646 11.165V14.5376H22.5642C23.0681 14.5376 23.5513 14.7508 23.9075 15.1303C24.2638 15.5097 24.4639 16.0244 24.4639 16.5611V17.3031C25.1796 17.4579 25.8231 17.8715 26.2853 18.4739C26.7475 19.0762 27 19.8303 27 20.6082C27 21.3862 26.7475 22.1402 26.2853 22.7426C25.8231 23.3449 25.1796 23.7586 24.4639 23.9134V24.6553C24.4639 25.192 24.2638 25.7067 23.9075 26.0862C23.5513 26.4657 23.0681 26.6789 22.5642 26.6789H9.89968C9.39586 26.6789 8.91266 26.4657 8.5564 26.0862C8.20014 25.7067 8 25.192 8 24.6553V16.5611C8 16.0244 8.20014 15.5097 8.5564 15.1303C8.91266 14.7508 9.39586 14.5376 9.89968 14.5376H11.7994ZM13.0658 11.165C13.0658 10.2705 13.3994 9.41269 13.9932 8.7802C14.5869 8.14772 15.3922 7.79239 16.232 7.79239C17.0717 7.79239 17.877 8.14772 18.4708 8.7802C19.0645 9.41269 19.3981 10.2705 19.3981 11.165V14.5376H13.0658V11.165ZM18.7649 18.5847C18.261 18.5847 17.7778 18.7979 17.4216 19.1774C17.0653 19.5569 16.8652 20.0715 16.8652 20.6082C16.8652 21.1449 17.0653 21.6596 17.4216 22.0391C17.7778 22.4186 18.261 22.6318 18.7649 22.6318H23.8307C24.3345 22.6318 24.8177 22.4186 25.174 22.0391C25.5302 21.6596 25.7304 21.1449 25.7304 20.6082C25.7304 20.0715 25.5302 19.5569 25.174 19.1774C24.8177 18.7979 24.3345 18.5847 23.8307 18.5847H18.7649Z" fill="#6A6A6A"/>
</g>
</g>
</svg>
