<?xml version="1.0" encoding="utf-8"?>
<!-- Generator: Adobe Illustrator 27.9.0, SVG Export Plug-In . SVG Version: 6.00 Build 0)  -->
<svg version="1.1" id="Capa_1" xmlns="http://www.w3.org/2000/svg" xmlns:xlink="http://www.w3.org/1999/xlink" x="0px" y="0px"
	 viewBox="0 0 63 58" style="enable-background:new 0 0 63 58;" xml:space="preserve">
<style type="text/css">
	.st0{fill:none;stroke:#FFA500;}
</style>
<path class="st0" d="M58,29.8C58,45,45.7,57.4,30.4,57.4C15.2,57.4,2.9,45,2.9,29.8S15.2,2.3,30.4,2.3C45.7,2.3,58,14.6,58,29.8z"/>
<path class="st0" d="M61.5,28.9c0,15.7-13.1,28.4-29.3,28.4S2.9,44.6,2.9,28.9C2.9,13.2,16,0.5,32.2,0.5S61.5,13.2,61.5,28.9z"/>
<path class="st0" d="M58,28.9c0,15.7-12.9,28.4-28.7,28.4S0.5,44.6,0.5,28.9S13.4,0.5,29.2,0.5S58,13.2,58,28.9z"/>
</svg>
