<svg width="57" height="55" viewBox="0 0 57 55" fill="none" xmlns="http://www.w3.org/2000/svg">
<path d="M52.6835 28.3332C52.6835 41.9936 41.6001 53.0689 27.9262 53.0689C14.2523 53.0689 3.16888 41.9936 3.16888 28.3332C3.16888 14.6728 14.2523 3.59741 27.9262 3.59741C41.6001 3.59741 52.6835 14.6728 52.6835 28.3332Z" stroke="#FFA500" stroke-width="2"/>
<path d="M55.9371 27.5206C55.9371 41.6017 44.1539 53.0691 29.553 53.0691C14.952 53.0691 3.16888 41.6017 3.16888 27.5206C3.16888 13.4396 14.952 1.97217 29.553 1.97217C44.1539 1.97217 55.9371 13.4396 55.9371 27.5206Z" stroke="#FFA500" stroke-width="2"/>
<path d="M52.6836 27.5206C52.6836 41.6203 41.1243 53.0691 26.8418 53.0691C12.5594 53.0691 1 41.6203 1 27.5206C1 13.4209 12.5594 1.97217 26.8418 1.97217C41.1243 1.97217 52.6836 13.4209 52.6836 27.5206Z" stroke="#FFA500" stroke-width="2"/>
<path d="M16.875 22.4C16.875 20.1598 16.875 19.0397 17.2973 18.184C17.6689 17.4314 18.2617 16.8195 18.9908 16.436C19.8197 16 20.9048 16 23.075 16H33.925C36.0952 16 37.1803 16 38.0092 16.436C38.7383 16.8195 39.3311 17.4314 39.7026 18.184C40.125 19.0397 40.125 20.1598 40.125 22.4V33.6C40.125 35.8402 40.125 36.9603 39.7026 37.816C39.3311 38.5686 38.7383 39.1805 38.0092 39.564C37.1803 40 36.0952 40 33.925 40H23.075C20.9048 40 19.8197 40 18.9908 39.564C18.2617 39.1805 17.6689 38.5686 17.2973 37.816C16.875 36.9603 16.875 35.8402 16.875 33.6V22.4Z" stroke="#00539B" stroke-width="2" stroke-linecap="round" stroke-linejoin="round"/>
<path d="M30.8681 21.7333C30.8681 21.36 30.8681 21.1733 30.7977 21.0307C30.7357 20.9052 30.6369 20.8032 30.5154 20.7393C30.3773 20.6667 30.1964 20.6667 29.8347 20.6667H27.1653C26.8036 20.6667 26.6227 20.6667 26.4846 20.7393C26.3631 20.8032 26.2643 20.9052 26.2023 21.0307C26.1319 21.1733 26.1319 21.36 26.1319 21.7333V24.4889C26.1319 24.8623 26.1319 25.0489 26.0616 25.1915C25.9996 25.317 25.9008 25.419 25.7793 25.4829C25.6412 25.5556 25.4603 25.5556 25.0986 25.5556H22.4292C22.0675 25.5556 21.8866 25.5556 21.7485 25.6282C21.6269 25.6921 21.5281 25.7941 21.4662 25.9196C21.3958 26.0622 21.3958 26.2489 21.3958 26.6222V29.3778C21.3958 29.7511 21.3958 29.9378 21.4662 30.0804C21.5281 30.2059 21.6269 30.3079 21.7485 30.3718C21.8866 30.4444 22.0675 30.4444 22.4292 30.4444H25.0986C25.4603 30.4444 25.6412 30.4444 25.7793 30.5171C25.9008 30.581 25.9996 30.683 26.0616 30.8085C26.1319 30.9511 26.1319 31.1377 26.1319 31.5111V34.2667C26.1319 34.64 26.1319 34.8267 26.2023 34.9693C26.2643 35.0948 26.3631 35.1968 26.4846 35.2607C26.6227 35.3333 26.8036 35.3333 27.1653 35.3333H29.8347C30.1964 35.3333 30.3773 35.3333 30.5154 35.2607C30.6369 35.1968 30.7357 35.0948 30.7977 34.9693C30.8681 34.8267 30.8681 34.64 30.8681 34.2667V31.5111C30.8681 31.1377 30.8681 30.9511 30.9384 30.8085C31.0004 30.683 31.0992 30.581 31.2207 30.5171C31.3588 30.4444 31.5397 30.4444 31.9014 30.4444H34.5708C34.9325 30.4444 35.1134 30.4444 35.2515 30.3718C35.3731 30.3079 35.4719 30.2059 35.5338 30.0804C35.6042 29.9378 35.6042 29.7511 35.6042 29.3778V26.6222C35.6042 26.2489 35.6042 26.0622 35.5338 25.9196C35.4719 25.7941 35.3731 25.6921 35.2515 25.6282C35.1134 25.5556 34.9325 25.5556 34.5708 25.5556H31.9014C31.5397 25.5556 31.3588 25.5556 31.2207 25.4829C31.0992 25.419 31.0004 25.317 30.9384 25.1915C30.8681 25.0489 30.8681 24.8623 30.8681 24.4889V21.7333Z" stroke="#00539B" stroke-width="2" stroke-linecap="round" stroke-linejoin="round"/>
</svg>
