<svg width="57" height="54" viewBox="0 0 57 54" fill="none" xmlns="http://www.w3.org/2000/svg">
<path d="M52.6835 27.361C52.6835 41.0214 41.6001 52.0968 27.9262 52.0968C14.2523 52.0968 3.16888 41.0214 3.16888 27.361C3.16888 13.7006 14.2523 2.62524 27.9262 2.62524C41.6001 2.62524 52.6835 13.7006 52.6835 27.361Z" stroke="#FFA500" stroke-width="2"/>
<path d="M55.9371 26.5485C55.9371 40.6295 44.1539 52.097 29.553 52.097C14.952 52.097 3.16888 40.6295 3.16888 26.5485C3.16888 12.4674 14.952 1 29.553 1C44.1539 1 55.9371 12.4674 55.9371 26.5485Z" stroke="#FFA500" stroke-width="2"/>
<path d="M52.6836 26.5485C52.6836 40.6482 41.1243 52.097 26.8418 52.097C12.5594 52.097 1 40.6482 1 26.5485C1 12.4488 12.5594 1 26.8418 1C41.1243 1 52.6836 12.4488 52.6836 26.5485Z" stroke="#FFA500" stroke-width="2"/>
<path d="M33.6667 35.0001L36.25 37.6667L41.4167 32.3334M41.4167 24.3334H15.5833M41.4167 27.0001V21.9334C41.4167 20.4399 41.4167 19.6932 41.1351 19.1228C40.8874 18.621 40.4922 18.2131 40.0061 17.9574C39.4535 17.6667 38.7301 17.6667 37.2833 17.6667H19.7167C18.2699 17.6667 17.5465 17.6667 16.9939 17.9574C16.5078 18.2131 16.1126 18.621 15.8649 19.1228C15.5833 19.6932 15.5833 20.4399 15.5833 21.9334V32.0667C15.5833 33.5602 15.5833 34.307 15.8649 34.8774C16.1126 35.3792 16.5078 35.7871 16.9939 36.0428C17.5465 36.3334 18.2699 36.3334 19.7167 36.3334H28.5" stroke="#00539B" stroke-width="2" stroke-linecap="round" stroke-linejoin="round"/>
</svg>
