<svg width="35" height="33" viewBox="0 0 35 33" fill="none" xmlns="http://www.w3.org/2000/svg">
<g id="Group 6829">
<g id="Group 6827">
<g id="Group 238">
<path id="Ellipse 8" d="M32.5 16.8192C32.5 25.2798 25.6354 32.1393 17.1666 32.1393C8.69785 32.1393 1.83326 25.2798 1.83326 16.8192C1.83326 8.35847 8.69785 1.49902 17.1666 1.49902C25.6354 1.49902 32.5 8.35847 32.5 16.8192Z" stroke="#FFA500"/>
<path id="Ellipse 9" d="M34.5 16.3197C34.5 25.0422 27.202 32.1394 18.1666 32.1394C9.13124 32.1394 1.83326 25.0422 1.83326 16.3197C1.83326 7.59722 9.13124 0.5 18.1666 0.5C27.202 0.5 34.5 7.59722 34.5 16.3197Z" stroke="#FFA500"/>
<path id="Ellipse 10" d="M32.5001 16.3197C32.5001 25.0515 25.3418 32.1394 16.5 32.1394C7.65827 32.1394 0.5 25.0515 0.5 16.3197C0.5 7.58789 7.65827 0.5 16.5 0.5C25.3418 0.5 32.5001 7.58789 32.5001 16.3197Z" stroke="#FFA500"/>
</g>
</g>
<path id="Vector" fill-rule="evenodd" clip-rule="evenodd" d="M17.5 6C12.2532 6 8 10.4894 8 16.0278C8 21.5661 12.2532 26.0556 17.5 26.0556C22.7469 26.0556 27 21.5661 27 16.0278C27 10.4894 22.7469 6 17.5 6ZM14.175 13.5208C14.175 13.0599 14.261 12.6035 14.4281 12.1777C14.5952 11.7519 14.8401 11.365 15.1489 11.0391C15.4576 10.7132 15.8242 10.4547 16.2276 10.2783C16.631 10.1019 17.0634 10.0111 17.5 10.0111C17.9366 10.0111 18.369 10.1019 18.7724 10.2783C19.1758 10.4547 19.5424 10.7132 19.8511 11.0391C20.1599 11.365 20.4048 11.7519 20.5719 12.1777C20.739 12.6035 20.825 13.0599 20.825 13.5208C20.825 14.4517 20.4747 15.3444 19.8511 16.0026C19.2276 16.6608 18.3818 17.0306 17.5 17.0306C16.6182 17.0306 15.7724 16.6608 15.1489 16.0026C14.5253 15.3444 14.175 14.4517 14.175 13.5208ZM23.4451 21.0256C22.734 21.9699 21.8299 22.7323 20.8005 23.256C19.771 23.7797 18.6428 24.0511 17.5 24.05C16.3572 24.0511 15.229 23.7797 14.1995 23.256C13.1701 22.7323 12.266 21.9699 11.5549 21.0256C13.0949 19.8594 15.1963 19.0361 17.5 19.0361C19.8038 19.0361 21.9051 19.8594 23.4451 21.0256Z" fill="white"/>
</g>
</svg>
