<svg width="57" height="55" viewBox="0 0 57 55" fill="none" xmlns="http://www.w3.org/2000/svg">
<path d="M52.6835 28.3051C52.6835 41.9655 41.6001 53.0409 27.9262 53.0409C14.2523 53.0409 3.16888 41.9655 3.16888 28.3051C3.16888 14.6447 14.2523 3.56934 27.9262 3.56934C41.6001 3.56934 52.6835 14.6447 52.6835 28.3051Z" stroke="#FFA500" stroke-width="2"/>
<path d="M55.9371 27.4926C55.9371 41.5736 44.1539 53.041 29.553 53.041C14.952 53.041 3.16888 41.5736 3.16888 27.4926C3.16888 13.4115 14.952 1.94409 29.553 1.94409C44.1539 1.94409 55.9371 13.4115 55.9371 27.4926Z" stroke="#FFA500" stroke-width="2"/>
<path d="M52.6836 27.4926C52.6836 41.5923 41.1243 53.041 26.8418 53.041C12.5594 53.041 1 41.5923 1 27.4926C1 13.3929 12.5594 1.94409 26.8418 1.94409C41.1243 1.94409 52.6836 13.3929 52.6836 27.4926Z" stroke="#FFA500" stroke-width="2"/>
<path d="M37.5417 22.6667V14.6667M33.6667 18.6667H41.4167M41.4167 28.0001V34.9334C41.4167 37.1736 41.4167 38.2937 40.9943 39.1494C40.6228 39.902 40.03 40.5139 39.3009 40.8974C38.472 41.3334 37.3869 41.3334 35.2167 41.3334H21.7833C19.6131 41.3334 18.528 41.3334 17.6991 40.8974C16.97 40.5139 16.3772 39.902 16.0057 39.1494C15.5833 38.2937 15.5833 37.1736 15.5833 34.9334V21.0667C15.5833 18.8265 15.5833 17.7064 16.0057 16.8508C16.3772 16.0981 16.97 15.4862 17.6991 15.1027C18.528 14.6667 19.6131 14.6667 21.7833 14.6667H28.5M15.7716 38.5685C16.3776 36.3182 18.3769 34.6667 20.75 34.6667H29.7917C30.992 34.6667 31.5922 34.6667 32.0913 34.7692C34.1409 35.1901 35.743 36.8439 36.1507 38.9596C36.25 39.4748 36.25 40.0943 36.25 41.3334M31.0833 24.6667C31.0833 27.6123 28.7701 30.0001 25.9167 30.0001C23.0632 30.0001 20.75 27.6123 20.75 24.6667C20.75 21.7212 23.0632 19.3334 25.9167 19.3334C28.7701 19.3334 31.0833 21.7212 31.0833 24.6667Z" stroke="#00539B" stroke-width="2" stroke-linecap="round" stroke-linejoin="round"/>
</svg>
