<svg width="35" height="33" viewBox="0 0 35 33" fill="none" xmlns="http://www.w3.org/2000/svg">
<g id="Group 6887">
<g id="Group 6827">
<g id="Group 238">
<path id="Ellipse 8" d="M32.5 16.9842C32.5 25.4449 25.6354 32.3043 17.1666 32.3043C8.69785 32.3043 1.83326 25.4449 1.83326 16.9842C1.83326 8.52351 8.69785 1.66406 17.1666 1.66406C25.6354 1.66406 32.5 8.52351 32.5 16.9842Z" stroke="#FFA500"/>
<path id="Ellipse 9" d="M34.5 16.4848C34.5 25.2073 27.202 32.3045 18.1666 32.3045C9.13124 32.3045 1.83326 25.2073 1.83326 16.4848C1.83326 7.76226 9.13124 0.665039 18.1666 0.665039C27.202 0.665039 34.5 7.76226 34.5 16.4848Z" stroke="#FFA500"/>
<path id="Ellipse 10" d="M32.5001 16.4848C32.5001 25.2166 25.3418 32.3045 16.5 32.3045C7.65827 32.3045 0.5 25.2166 0.5 16.4848C0.5 7.75293 7.65827 0.665039 16.5 0.665039C25.3418 0.665039 32.5001 7.75293 32.5001 16.4848Z" stroke="#FFA500"/>
</g>
<g id="Group 6800">
<path id="Vector" d="M15.5463 13.8397C17.52 13.8397 19.1199 12.1217 19.1199 10.0024C19.1199 7.88307 17.52 6.16504 15.5463 6.16504C13.5726 6.16504 11.9727 7.88307 11.9727 10.0024C11.9727 12.1217 13.5726 13.8397 15.5463 13.8397Z" fill="#6A6A6A"/>
<path id="Vector_2" d="M16.6006 25.0447C16.4037 24.8357 16.2753 24.5638 16.2345 24.2697C16.1937 23.9757 16.2427 23.6754 16.3742 23.4138L16.6899 22.7743L16.0407 22.5632C15.7759 22.4743 15.5455 22.295 15.3842 22.0526C15.223 21.8102 15.1398 21.5179 15.1473 21.2202V19.9091C15.1468 19.6126 15.2351 19.3239 15.3992 19.0855C15.5633 18.8471 15.7945 18.6717 16.0586 18.5852L16.7078 18.3741L16.398 17.7346C16.2704 17.4766 16.2218 17.1819 16.2592 16.8925C16.2967 16.6031 16.4182 16.3338 16.6065 16.1229C16.1483 16.0584 15.6868 16.0242 15.2247 16.0206C13.8598 15.9861 12.5046 16.2754 11.2557 16.868C10.0069 17.4605 8.89523 18.3417 8 19.4486V24.4051C8 24.5748 8.06275 24.7374 8.17445 24.8574C8.28615 24.9773 8.43764 25.0447 8.59561 25.0447H16.6006Z" fill="#6A6A6A"/>
<path id="Vector_3" d="M26.8807 19.6977L25.6895 19.314C25.607 18.9981 25.4911 18.6934 25.344 18.4058L25.9397 17.2163C25.9627 17.1721 25.9711 17.1209 25.9635 17.0709C25.9559 17.021 25.9328 16.9753 25.898 16.9412L25.0343 16.0075C25.0011 15.9727 24.9587 15.9498 24.9128 15.9418C24.867 15.9338 24.82 15.9411 24.7782 15.9627L23.6764 16.6023C23.4051 16.4441 23.1198 16.3155 22.8246 16.2185L22.4613 14.9394C22.4453 14.8923 22.4161 14.8516 22.3777 14.823C22.3393 14.7943 22.2936 14.7792 22.2469 14.7795H21.008C20.9616 14.7809 20.9167 14.7976 20.8794 14.8274C20.8421 14.8571 20.8142 14.8985 20.7996 14.9458L20.4422 16.2249C20.1413 16.3189 19.8515 16.4498 19.5786 16.6151L18.5005 15.9755C18.4586 15.9516 18.4108 15.9424 18.3637 15.9493C18.3167 15.9562 18.2729 15.9788 18.2385 16.0139L17.3629 16.9348C17.3284 16.9705 17.3057 17.0173 17.2982 17.0681C17.2907 17.1188 17.2988 17.1709 17.3212 17.2163L17.9168 18.3802C17.7573 18.6691 17.6275 18.9758 17.5297 19.2948L16.3385 19.6849C16.2934 19.6989 16.2539 19.7284 16.2259 19.7688C16.1979 19.8093 16.1831 19.8584 16.1836 19.9088V21.2199C16.1831 21.2702 16.1979 21.3194 16.2259 21.3598C16.2539 21.4003 16.2934 21.4297 16.3385 21.4437L17.5297 21.8338C17.619 22.1471 17.7388 22.4493 17.8871 22.7356L17.2915 23.9508C17.269 23.9962 17.2609 24.0482 17.2684 24.099C17.276 24.1497 17.2987 24.1965 17.3331 24.2322L18.2206 25.1595C18.255 25.1946 18.2988 25.2172 18.3459 25.2241C18.3929 25.231 18.4408 25.2218 18.4827 25.1979L19.5964 24.5583C19.8615 24.7114 20.141 24.8336 20.4303 24.9229L20.7877 26.234C20.8026 26.2823 20.8314 26.3244 20.8699 26.3543C20.9084 26.3841 20.9546 26.4002 21.0021 26.4003H22.2231C22.2695 26.3989 22.3144 26.3822 22.3517 26.3524C22.389 26.3227 22.4169 26.2813 22.4315 26.234L22.7889 24.9229C23.0747 24.8347 23.3504 24.7125 23.6108 24.5583L24.7365 25.1979C24.7784 25.2218 24.8263 25.231 24.8733 25.2241C24.9204 25.2172 24.9642 25.1946 24.9986 25.1595L25.8682 24.2322C25.9009 24.1952 25.9219 24.1482 25.9283 24.0977C25.9347 24.0472 25.9262 23.9958 25.9039 23.9508L25.3083 22.7484C25.4508 22.4682 25.5646 22.1723 25.6478 21.8658L26.839 21.4757C26.8838 21.4602 26.9231 21.4306 26.9518 21.3906C26.9805 21.3506 26.9973 21.3022 26.9998 21.2518V19.928C27.0013 19.8816 26.991 19.8357 26.97 19.7951C26.949 19.7546 26.9181 19.7209 26.8807 19.6977ZM21.6215 22.7164C21.2278 22.7177 20.8426 22.5935 20.5147 22.3595C20.1868 22.1256 19.9309 21.7924 19.7794 21.4022C19.6279 21.012 19.5876 20.5823 19.6637 20.1675C19.7398 19.7527 19.9288 19.3715 20.2068 19.0721C20.4848 18.7727 20.8392 18.5687 21.2253 18.4857C21.6113 18.4028 22.0116 18.4447 22.3755 18.6062C22.7393 18.7677 23.0503 19.0415 23.2692 19.3929C23.4881 19.7443 23.6049 20.1576 23.6049 20.5803C23.6049 21.1457 23.3961 21.6881 23.0243 22.0885C22.6525 22.4889 22.1481 22.7147 21.6215 22.7164Z" fill="#6A6A6A"/>
</g>
</g>
</g>
</svg>
