<svg width="35" height="34" viewBox="0 0 35 34" fill="none" xmlns="http://www.w3.org/2000/svg">
<g id="Group 6888">
<g id="Group 6827">
<g id="Group 238">
<path id="Ellipse 8" d="M32.5 17.7059C32.5 26.1666 25.6354 33.026 17.1666 33.026C8.69785 33.026 1.83326 26.1666 1.83326 17.7059C1.83326 9.24519 8.69785 2.38574 17.1666 2.38574C25.6354 2.38574 32.5 9.24519 32.5 17.7059Z" stroke="#FFA500"/>
<path id="Ellipse 9" d="M34.5 17.2064C34.5 25.9289 27.202 33.0261 18.1666 33.0261C9.13124 33.0261 1.83326 25.9289 1.83326 17.2064C1.83326 8.48394 9.13124 1.38672 18.1666 1.38672C27.202 1.38672 34.5 8.48394 34.5 17.2064Z" stroke="#FFA500"/>
<path id="Ellipse 10" d="M32.5001 17.2064C32.5001 25.9383 25.3418 33.0261 16.5 33.0261C7.65827 33.0261 0.5 25.9383 0.5 17.2064C0.5 8.47461 7.65827 1.38672 16.5 1.38672C25.3418 1.38672 32.5001 8.47461 32.5001 17.2064Z" stroke="#FFA500"/>
</g>
</g>
<path id="Vector" d="M13.1155 16.9975C13.1155 16.8019 13.1925 16.6144 13.3295 16.4761C13.4666 16.3378 13.6524 16.2601 13.8463 16.2601H20.4233V11.4674C20.4233 9.99273 18.88 8.88672 17.5002 8.88672H10.5577C9.87961 8.88745 9.22946 9.15958 8.74995 9.64339C8.27043 10.1272 8.00073 10.7832 8 11.4674V22.5275C8.00073 23.2117 8.27043 23.8677 8.74995 24.3515C9.22946 24.8353 9.87961 25.1075 10.5577 25.1082H17.8656C18.5437 25.1075 19.1938 24.8353 19.6734 24.3515C20.1529 23.8677 20.4226 23.2117 20.4233 22.5275V17.7348H13.8463C13.6524 17.7348 13.4666 17.6571 13.3295 17.5188C13.1925 17.3806 13.1155 17.193 13.1155 16.9975ZM26.7861 16.4763L23.1322 12.7896C22.9941 12.6571 22.8101 12.5844 22.6195 12.5868C22.429 12.5893 22.2469 12.6668 22.1121 12.8027C21.9774 12.9387 21.9006 13.1224 21.8982 13.3147C21.8957 13.5069 21.9678 13.6926 22.0991 13.832L24.5052 16.2601H20.4233V17.7348H24.5052L22.0991 20.163C22.0284 20.2307 21.9718 20.3121 21.9328 20.4023C21.8937 20.4925 21.8729 20.5897 21.8717 20.6881C21.8704 20.7865 21.8887 20.8841 21.9255 20.9753C21.9622 21.0665 22.0167 21.1493 22.0857 21.2189C22.1546 21.2885 22.2367 21.3434 22.3271 21.3805C22.4174 21.4176 22.5142 21.436 22.6118 21.4348C22.7093 21.4335 22.8056 21.4126 22.895 21.3732C22.9844 21.3338 23.065 21.2767 23.1322 21.2054L26.7861 17.5187C26.9231 17.3804 27 17.1929 27 16.9975C27 16.802 26.9231 16.6145 26.7861 16.4763Z" fill="#6A6A6A"/>
</g>
</svg>
